<?xml version="1.0" encoding="utf-8"?>
<!-- Generator: Adobe Illustrator 24.3.0, SVG Export Plug-In . SVG Version: 6.00 Build 0)  -->
<svg version="1.1" id="Capa_1" xmlns="http://www.w3.org/2000/svg" xmlns:xlink="http://www.w3.org/1999/xlink" x="0px" y="0px"
	 viewBox="0 0 1290.2 670" style="enable-background:new 0 0 1290.2 670;" xml:space="preserve">
<style type="text/css">
	.st0{fill:none;stroke:#31383F;stroke-width:2.6257;stroke-miterlimit:10;}
	.st1{fill:#606060;stroke:#31383F;stroke-width:1.3129;stroke-miterlimit:10;}
	.st2{fill:#31383F;stroke:#31383F;stroke-width:2.6257;stroke-miterlimit:10;}
	.st3{fill:#606060;}
	.st4{fill:#EBECED;}
	.st5{fill:#606060;stroke:#31383F;stroke-width:0.9039;stroke-miterlimit:10;}
</style>
<circle class="st4" cx="612.9" cy="350.7" r="191.3"/>
<g>
	<g>
		<g>
			<path class="st5" d="M660.9,315.9c-1,4.3,3.4,9,9.9,10.5c6.4,1.4,12.4-0.9,13.4-5.3c1-4.3-3.5-9-9.9-10.5
				C667.9,309.2,661.8,311.5,660.9,315.9z"/>
			<path class="st5" d="M661.4,341.1c-1.2,5.2,4.1,10.8,11.8,12.5c7.7,1.7,14.9-1.1,16-6.3c1.2-5.2-4.1-10.8-11.8-12.5
				C669.7,333.1,662.5,335.9,661.4,341.1z"/>
			<path class="st5" d="M613.2,295.5c0,0,5.1,15.3,16.3,13.8c2.1-0.3,5-0.3,7.4,0.2c2.6,0.5,4.5,1.6,5.7,2.1c5,2,14.4-8.5,14.9-16.5
				c0-0.2,0-0.8,0.1-1.3c0.9-4.1,7.4-6.2,14.5-4.6c7.1,1.6,12,6.2,11.1,10.4c-0.8,3.8-6,5.9-12.3,5c-0.3,0-16.4-2.2-21.6,14.1
				c-0.1,0.4-0.7,2.6-0.7,2.6s0,0,0,0c-1.2,5-8.5,7.7-16.2,6.2c-7.3-1.5-12.3-6.3-11.8-11c0.1-0.9,0.8-12.9-17.2-12.2h0
				c-0.8,0-2,0-2.8,0c-7-0.5-12.5-4.3-12.3-8.5c0.2-4.2,6.1-7.2,13.1-6.6C607.1,289.5,611.8,292.2,613.2,295.5z"/>
			<path class="st5" d="M587.7,334.8c-7.3,0.5-13,5.2-12.6,10.4c0.3,5.2,6.5,8.9,13.8,8.4c7.3-0.5,13-5.2,12.6-10.4
				C601.1,338,594.9,334.3,587.7,334.8z"/>
		</g>
		<g>
			<path class="st5" d="M612.8,343.4c1.1,5.2,7.3,9.6,15,10.1c8.7,0.6,16.1-3.9,16.5-10.1c0.4-6.2-6.4-11.7-15.1-12.4
				c-1.5-0.1-3-0.1-4.4,0.1c0,0-1.7,0.2-2.9,0.2c-17.8-0.3-14.8-12.8-14.8-12.8c0.2-0.8,0.2-1.7-0.1-2.5c-1-4.1-6.5-6.4-12.7-6
				c-11,0.7-14.4-10-15.2-13.4c0,0-0.2-0.7,0-1.8c0.1-0.5,0-0.9-0.1-1.4c-0.9-4.1-7.4-6.2-14.5-4.6c-7.1,1.6-12,6.2-11.1,10.4
				c0.8,3.8,5.9,4.8,12.3,5c13.6,0.4,15.6,16.4,15.7,17.1c1,4,6.4,6.5,12.5,6c12.5-1,17.2,8.3,18.3,13.2
				C612.2,340.5,612.6,342.6,612.8,343.4z"/>
			<path class="st5" d="M570.5,315.4c1,4.5-3.6,9.4-10.3,10.9c-6.7,1.5-12.9-1-13.9-5.5c-1-4.5,3.6-9.4,10.3-10.9
				C563.3,308.5,569.5,310.9,570.5,315.4z"/>
			<path class="st5" d="M563.4,341.1c1.1,5-4,10.4-11.4,12.1c-7.4,1.7-14.3-1-15.4-6.1c-1.1-5,4-10.4,11.4-12.1
				C555.4,333.4,562.3,336.1,563.4,341.1z"/>
			<path class="st5" d="M635.6,289c-6.1,0.4-10.8,4.3-10.5,8.6c0.3,4.3,5.4,7.4,11.4,7c6.1-0.4,10.8-4.3,10.5-8.6
				C646.8,291.7,641.7,288.5,635.6,289z"/>
		</g>
	</g>
	<g>
		<path class="st5" d="M596.4,390.1c0-3.2-0.1-5.7-0.3-8.2h5l0.3,4.9h0.2c1.7-2.9,4.6-5.6,9.8-5.6c4.2,0,7.4,2.5,8.7,6.1h0.1
			c1-1.8,2.3-3,3.5-4c1.9-1.4,3.9-2.1,6.8-2.1c4.2,0,10.3,2.6,10.3,13.2v17.9h-5.5v-17.2c0-5.9-2.2-9.4-6.8-9.4
			c-3.3,0-5.7,2.3-6.8,5c-0.3,0.8-0.5,1.8-0.5,2.8v18.9h-5.5v-18.3c0-4.9-2.2-8.4-6.5-8.4c-3.5,0-6.1,2.8-7,5.5
			c-0.3,0.8-0.5,1.8-0.5,2.7v18.4h-5.5V390.1z"/>
		<path class="st5" d="M648.7,398.1c0.1,7.5,5.3,10.6,11.4,10.6c4.3,0,7-0.7,9.3-1.5l1.1,3.9c-2.1,0.9-5.9,1.9-11.2,1.9
			c-10.2,0-16.4-6.2-16.4-15.4c0-9.3,6-16.5,15.8-16.5c10.9,0,13.7,8.7,13.7,14.4c0,1.1-0.1,2-0.2,2.7L648.7,398.1z M666.4,394.1
			c0.1-3.5-1.6-9-8.4-9c-6.2,0-8.8,5.2-9.3,9H666.4z"/>
		<path class="st5" d="M702.9,370.5v34c0,2.7,0.1,5.8,0.3,7.9H698l-0.3-5.3h-0.1c-1.8,3.4-5.5,6-10.6,6c-7.6,0-13.5-6.2-13.5-15.5
			c-0.1-10.2,6.5-16.4,14.1-16.4c4.9,0,8.1,2.2,9.5,4.6h0.1v-15.3H702.9z M697.2,394.3c0-0.8-0.1-1.6-0.3-2.4
			c-0.8-3.5-4-6.4-8.2-6.4c-5.9,0-9.4,5-9.4,11.7c0,6.2,3.2,11.3,9.3,11.3c3.8,0,7.3-2.5,8.4-6.6c0.2-0.8,0.3-1.5,0.3-2.4V394.3z"/>
		<path class="st5" d="M710.6,377.2c-2.3,0-3.8-1.6-3.8-3.6c0-1.9,1.6-3.5,3.9-3.5c2.4,0,3.9,1.6,3.9,3.5
			C714.6,375.5,713.1,377.2,710.6,377.2L710.6,377.2z M707.7,412.4v-29.5h6.1v29.5H707.7z"/>
		<path class="st5" d="M742.9,405.1c0,2.6,0.1,5.2,0.5,7.3h-5.5l-0.5-3.8h-0.2c-1.8,2.4-5.5,4.5-10.2,4.5c-6.8,0-10.2-4.3-10.2-8.8
			c0-7.4,7.2-11.4,20.1-11.3v-0.6c0-2.5-0.7-7.1-7.6-7c-3.2,0-6.4,0.8-8.8,2.3l-1.4-3.7c2.8-1.6,6.8-2.6,11.1-2.6
			c10.3,0,12.8,6.4,12.8,12.5V405.1z M736.9,396.8c-6.6-0.1-14.2,0.9-14.2,6.9c0,3.6,2.6,5.3,5.7,5.3c4.4,0,7.3-2.5,8.2-5.1
			c0.2-0.6,0.3-1.2,0.3-1.8V396.8z"/>
		<path class="st5" d="M482.7,390.1c0-3.2-0.1-5.7-0.3-8.2h5.4l0.3,5h0.1c1.7-2.8,5.5-5.7,11.1-5.7c4.6,0,11.8,2.5,11.8,13v18.2
			h-6.1v-17.6c0-4.9-2-9.1-7.7-9.1c-3.9,0-7,2.6-8.2,5.7c-0.3,0.7-0.4,1.7-0.4,2.6v18.4h-6.1V390.1z"/>
		<path class="st5" d="M519.1,398.1c0.1,7.5,5.3,10.6,11.4,10.6c4.4,0,7.1-0.7,9.2-1.5l1.1,3.9c-2.2,0.9-5.9,1.9-11.2,1.9
			c-10.2,0-16.5-6.2-16.5-15.4c0-9.3,6-16.5,15.8-16.5c10.9,0,13.8,8.7,13.8,14.4c0,1.1-0.1,2-0.2,2.7L519.1,398.1z M536.8,394.1
			c0.1-3.5-1.6-9-8.4-9c-6.2,0-8.8,5.2-9.3,9H536.8z"/>
		<path class="st5" d="M567.8,387l-7.5,9.6l11.7,15.7h-6.9l-4.9-6.9c-1.3-1.8-2.4-3.5-3.6-5.3h-0.1c-1.1,1.8-2.3,3.5-3.5,5.3
			l-4.8,6.9h-6.7l11.9-15.5l-11.3-14.9h6.8l4.8,6.5c1.2,1.8,2.3,3.3,3.4,5h0.2c1.1-1.8,2.2-3.3,3.4-5l4-5.6c1-1,2.5-0.9,2.5-0.9h3.7
			"/>
		<path class="st5" d="M570.6,381.9h0.4h4.9v-5.6l6-1.7v7.3h8v4.2h-8v16.4c0,3.8,1.2,5.9,4.6,5.9c1.7,0,2.6-0.1,3.5-0.4l0.3,4.2
			c-1.2,0.4-3,0.8-5.4,0.8c-2.8,0-5.1-0.9-6.6-2.3c-1.7-1.7-2.3-4.4-2.3-8v-16.6h-5.6c0,0-1.8,0-2.6,0.9"/>
	</g>
</g>
</svg>
