<?xml version="1.0" encoding="utf-8"?>
<!-- Generator: Adobe Illustrator 25.0.0, SVG Export Plug-In . SVG Version: 6.00 Build 0)  -->
<svg version="1.1" id="Capa_1" xmlns="http://www.w3.org/2000/svg" xmlns:xlink="http://www.w3.org/1999/xlink" x="0px" y="0px"
	 viewBox="0 0 58.3 72.4" style="enable-background:new 0 0 58.3 72.4;" xml:space="preserve">
<style type="text/css">
	.st0{fill:#EBECED;}
	.st1{fill:#606060;}
</style>
<circle class="st0" cx="29.5" cy="37.9" r="19.1"/>
<g>
	<path class="st1" d="M34.6,33.5c-0.1,0.5,0.4,1,1.1,1.1c0.7,0.1,1.3-0.1,1.4-0.6c0.1-0.5-0.4-1-1.1-1.1
		C35.4,32.8,34.7,33,34.6,33.5z"/>
	<path class="st1" d="M34.8,36.1c-0.1,0.6,0.5,1.2,1.3,1.3c0.8,0.2,1.6-0.1,1.7-0.7c0.1-0.6-0.5-1.2-1.3-1.3
		C35.7,35.2,35,35.6,34.8,36.1z"/>
	<path class="st1" d="M29.5,31.2c0,0,0.6,1.6,1.8,1.5c0.2,0,0.5,0,0.8,0c0.3,0.1,0.5,0.2,0.6,0.2c0.5,0.2,1.5-0.9,1.6-1.8
		c0,0,0-0.1,0-0.1c0.1-0.4,0.8-0.7,1.6-0.5c0.8,0.2,1.3,0.7,1.2,1.1c-0.1,0.4-0.6,0.6-1.3,0.6c0,0-1.8-0.2-2.3,1.6
		c0,0-0.1,0.3-0.1,0.3s0,0,0,0c-0.1,0.5-0.9,0.9-1.7,0.7c-0.8-0.1-1.3-0.7-1.3-1.2c0-0.1,0.1-1.4-1.9-1.3l0,0c-0.1,0-0.2,0-0.3,0
		c-0.8,0-1.4-0.4-1.3-0.9c0-0.5,0.6-0.8,1.4-0.7C28.8,30.6,29.4,30.9,29.5,31.2z"/>
	<path class="st1" d="M26.9,35.5c-0.8,0.1-1.4,0.6-1.3,1.1c0,0.6,0.7,1,1.5,0.9c0.8-0.1,1.4-0.6,1.3-1.1
		C28.3,35.8,27.7,35.4,26.9,35.5z"/>
	<path class="st1" d="M29.6,36.3c0.1,0.6,0.8,1,1.6,1.1c0.9,0.1,1.7-0.4,1.8-1.1c0-0.7-0.7-1.3-1.7-1.3c-0.2,0-0.3,0-0.5,0
		c0,0-0.2,0-0.3,0c-1.9,0-1.6-1.4-1.6-1.4c0-0.1,0-0.2,0-0.3c-0.1-0.4-0.7-0.7-1.4-0.6c-1.2,0.1-1.6-1-1.7-1.4c0,0,0-0.1,0-0.2
		c0-0.1,0-0.1,0-0.2c-0.1-0.4-0.8-0.7-1.6-0.5c-0.8,0.2-1.3,0.7-1.2,1.1c0.1,0.4,0.6,0.5,1.3,0.5c1.5,0,1.7,1.7,1.7,1.8
		c0.1,0.4,0.7,0.7,1.4,0.6c1.3-0.1,1.9,0.9,2,1.4C29.6,35.9,29.6,36.2,29.6,36.3z"/>
	<path class="st1" d="M24.8,33.5c0.1,0.5-0.4,1-1.1,1.2c-0.7,0.2-1.4-0.1-1.5-0.6c-0.1-0.5,0.4-1,1.1-1.2C24,32.8,24.7,33,24.8,33.5
		z"/>
	<path class="st1" d="M24.1,36.1c0.1,0.5-0.4,1.1-1.2,1.3c-0.8,0.2-1.5-0.1-1.7-0.6c-0.1-0.5,0.4-1.1,1.2-1.3
		C23.2,35.3,23.9,35.6,24.1,36.1z"/>
	<path class="st1" d="M32,30.5c-0.7,0.1-1.2,0.5-1.1,0.9c0,0.5,0.6,0.8,1.2,0.7c0.7-0.1,1.2-0.5,1.1-1C33.2,30.8,32.6,30.5,32,30.5z
		"/>
</g>
<g>
	<path class="st1" d="M27.4,41.8c0-0.4,0-0.6,0-0.9h0.6l0,0.5h0c0.2-0.3,0.5-0.6,1.1-0.6c0.5,0,0.8,0.3,1,0.7h0
		c0.1-0.2,0.3-0.3,0.4-0.4c0.2-0.2,0.4-0.2,0.8-0.2c0.5,0,1.1,0.3,1.1,1.5v2h-0.6v-1.9c0-0.7-0.3-1-0.8-1c-0.4,0-0.6,0.3-0.8,0.6
		c0,0.1-0.1,0.2-0.1,0.3v2.1h-0.6v-2c0-0.5-0.2-0.9-0.7-0.9c-0.4,0-0.7,0.3-0.8,0.6c0,0.1-0.1,0.2-0.1,0.3v2h-0.6V41.8z"/>
	<path class="st1" d="M33.3,42.6c0,0.8,0.6,1.2,1.3,1.2c0.5,0,0.8-0.1,1-0.2l0.1,0.4c-0.2,0.1-0.7,0.2-1.2,0.2
		c-1.1,0-1.8-0.7-1.8-1.7c0-1,0.7-1.8,1.8-1.8c1.2,0,1.5,1,1.5,1.6c0,0.1,0,0.2,0,0.3L33.3,42.6z M35.2,42.2c0-0.4-0.2-1-0.9-1
		c-0.7,0-1,0.6-1,1H35.2z"/>
	<path class="st1" d="M39.4,39.6v3.8c0,0.3,0,0.6,0,0.9h-0.6l0-0.6h0c-0.2,0.4-0.6,0.7-1.2,0.7c-0.8,0-1.5-0.7-1.5-1.7
		c0-1.1,0.7-1.8,1.6-1.8c0.5,0,0.9,0.2,1.1,0.5h0v-1.7H39.4z M38.8,42.2c0-0.1,0-0.2,0-0.3c-0.1-0.4-0.4-0.7-0.9-0.7
		c-0.7,0-1,0.6-1,1.3c0,0.7,0.4,1.3,1,1.3c0.4,0,0.8-0.3,0.9-0.7c0-0.1,0-0.2,0-0.3V42.2z"/>
	<path class="st1" d="M40.4,40.3c-0.3,0-0.4-0.2-0.4-0.4c0-0.2,0.2-0.4,0.4-0.4c0.3,0,0.4,0.2,0.4,0.4
		C40.9,40.1,40.7,40.3,40.4,40.3L40.4,40.3z M40.1,44.2v-3.3h0.7v3.3H40.1z"/>
	<path class="st1" d="M44,43.4c0,0.3,0,0.6,0.1,0.8h-0.6l-0.1-0.4h0c-0.2,0.3-0.6,0.5-1.1,0.5c-0.8,0-1.1-0.5-1.1-1
		c0-0.8,0.8-1.3,2.2-1.3V42c0-0.3-0.1-0.8-0.8-0.8c-0.4,0-0.7,0.1-1,0.3L41.4,41c0.3-0.2,0.8-0.3,1.2-0.3c1.1,0,1.4,0.7,1.4,1.4
		V43.4z M43.4,42.5c-0.7,0-1.6,0.1-1.6,0.8c0,0.4,0.3,0.6,0.6,0.6c0.5,0,0.8-0.3,0.9-0.6c0-0.1,0-0.1,0-0.2V42.5z"/>
	<path class="st1" d="M15,41.8c0-0.4,0-0.6,0-0.9h0.6l0,0.6h0c0.2-0.3,0.6-0.6,1.2-0.6c0.5,0,1.3,0.3,1.3,1.4v2h-0.7v-2
		c0-0.5-0.2-1-0.9-1c-0.4,0-0.8,0.3-0.9,0.6c0,0.1,0,0.2,0,0.3v2H15V41.8z"/>
	<path class="st1" d="M19,42.6c0,0.8,0.6,1.2,1.3,1.2c0.5,0,0.8-0.1,1-0.2l0.1,0.4c-0.2,0.1-0.7,0.2-1.2,0.2c-1.1,0-1.8-0.7-1.8-1.7
		c0-1,0.7-1.8,1.8-1.8c1.2,0,1.5,1,1.5,1.6c0,0.1,0,0.2,0,0.3L19,42.6z M21,42.2c0-0.4-0.2-1-0.9-1c-0.7,0-1,0.6-1,1H21z"/>
	<path class="st1" d="M24.5,41.4l-0.8,1.1l1.3,1.8h-0.8l-0.5-0.8c-0.1-0.2-0.3-0.4-0.4-0.6h0c-0.1,0.2-0.3,0.4-0.4,0.6l-0.5,0.8
		h-0.7l1.3-1.7l-1.3-1.7h0.8l0.5,0.7c0.1,0.2,0.3,0.4,0.4,0.6h0c0.1-0.2,0.2-0.4,0.4-0.6l0.4-0.6c0.1-0.1,0.3-0.1,0.3-0.1h0.4"/>
	<path class="st1" d="M24.8,40.8L24.8,40.8h0.6v-0.6L26,40v0.8h0.9v0.5H26v1.8c0,0.4,0.1,0.7,0.5,0.7c0.2,0,0.3,0,0.4,0l0,0.5
		c-0.1,0-0.3,0.1-0.6,0.1c-0.3,0-0.6-0.1-0.7-0.3c-0.2-0.2-0.3-0.5-0.3-0.9v-1.9h-0.6c0,0-0.2,0-0.3,0.1"/>
</g>
</svg>
