<?xml version="1.0" encoding="utf-8"?>
<!-- Generator: Adobe Illustrator 24.3.0, SVG Export Plug-In . SVG Version: 6.00 Build 0)  -->
<svg version="1.1" id="Capa_1" xmlns="http://www.w3.org/2000/svg" xmlns:xlink="http://www.w3.org/1999/xlink" x="0px" y="0px"
	 viewBox="0 0 1120.1 653.5" style="enable-background:new 0 0 1120.1 653.5;" xml:space="preserve">
<style type="text/css">
	.st0{fill:none;stroke:#31383F;stroke-width:2.2007;stroke-miterlimit:10;}
	.st1{fill:#606060;stroke:#31383F;stroke-width:1.1004;stroke-miterlimit:10;}
	.st2{fill:#31383F;stroke:#31383F;stroke-width:2.2007;stroke-miterlimit:10;}
	.st3{fill:#606060;}
</style>
<rect x="831.4" y="264.2" class="st0" width="82.6" height="254.1"/>
<g>
	<rect x="840.7" y="274.4" class="st0" width="9.1" height="29.8"/>
	<rect x="859.2" y="274.4" class="st0" width="9.1" height="29.8"/>
	<rect x="877.7" y="274.4" class="st0" width="9.1" height="29.8"/>
	<rect x="896.1" y="274.4" class="st0" width="9.1" height="29.8"/>
</g>
<g>
	<rect x="840.7" y="311.1" class="st0" width="9.1" height="29.8"/>
	<rect x="859.2" y="311.1" class="st0" width="9.1" height="29.8"/>
	<rect x="877.7" y="311.1" class="st0" width="9.1" height="29.8"/>
	<rect x="896.1" y="311.1" class="st0" width="9.1" height="29.8"/>
</g>
<g>
	<rect x="840.7" y="347.8" class="st0" width="9.1" height="29.8"/>
	<rect x="859.2" y="347.8" class="st0" width="9.1" height="29.8"/>
	<rect x="877.7" y="347.8" class="st0" width="9.1" height="29.8"/>
	<rect x="896.1" y="347.8" class="st0" width="9.1" height="29.8"/>
</g>
<g>
	<rect x="840.7" y="384.3" class="st0" width="9.1" height="29.8"/>
	<rect x="859.2" y="384.3" class="st0" width="9.1" height="29.8"/>
	<rect x="877.7" y="384.3" class="st0" width="9.1" height="29.8"/>
	<rect x="896.1" y="384.3" class="st0" width="9.1" height="29.8"/>
</g>
<g>
	<rect x="840.7" y="421.1" class="st0" width="9.1" height="29.8"/>
	<rect x="859.2" y="421.1" class="st0" width="9.1" height="29.8"/>
	<rect x="877.7" y="421.1" class="st0" width="9.1" height="29.8"/>
	<rect x="896.1" y="421.1" class="st0" width="9.1" height="29.8"/>
</g>
<g>
	<rect x="840.7" y="457.7" class="st0" width="9.1" height="29.8"/>
	<rect x="859.2" y="457.7" class="st0" width="9.1" height="29.8"/>
	<rect x="877.7" y="457.7" class="st0" width="9.1" height="29.8"/>
	<rect x="896.1" y="457.7" class="st0" width="9.1" height="29.8"/>
</g>
<polygon class="st0" points="1034.9,518.4 929.9,518.4 929.9,323.6 1034.9,336.5 "/>
<rect x="958.8" y="348.9" class="st1" width="76.1" height="5.7"/>
<rect x="958.8" y="360.6" class="st1" width="76.1" height="5.7"/>
<rect x="958.8" y="372.3" class="st1" width="76.1" height="5.7"/>
<rect x="958.8" y="383.9" class="st1" width="76.1" height="5.7"/>
<rect x="958.8" y="395.4" class="st1" width="76.1" height="5.7"/>
<rect x="958.8" y="407.1" class="st1" width="76.1" height="5.7"/>
<rect x="958.8" y="418.6" class="st1" width="76.1" height="5.7"/>
<rect x="958.8" y="430.2" class="st1" width="76.1" height="5.7"/>
<g>
	<g>
		<rect x="359" y="178.6" class="st0" width="85.4" height="339.9"/>
		<rect x="364.2" y="187.2" class="st0" width="74.2" height="5.8"/>
		<rect x="364.2" y="199.6" class="st0" width="74.2" height="5.8"/>
		<rect x="364.2" y="212" class="st0" width="74.2" height="5.8"/>
		<rect x="364.2" y="224.2" class="st0" width="74.2" height="5.8"/>
		<rect x="364.2" y="236.6" class="st0" width="74.2" height="5.8"/>
		<rect x="364.2" y="248.9" class="st0" width="74.2" height="5.8"/>
		<rect x="364.2" y="261.3" class="st0" width="74.2" height="5.8"/>
		<rect x="364.2" y="273.7" class="st0" width="74.2" height="5.8"/>
		<rect x="364.2" y="286" class="st0" width="74.2" height="5.8"/>
		<rect x="364.2" y="298.4" class="st0" width="74.2" height="5.8"/>
		<rect x="364.2" y="310.6" class="st0" width="74.2" height="5.8"/>
		<rect x="364.2" y="323" class="st0" width="74.2" height="5.8"/>
		<rect x="364.2" y="335.4" class="st0" width="74.2" height="5.8"/>
		<rect x="364.2" y="347.8" class="st0" width="74.2" height="5.8"/>
		<rect x="364.2" y="360.2" class="st0" width="74.2" height="5.8"/>
		<rect x="364.2" y="372.4" class="st0" width="74.2" height="5.8"/>
		<rect x="364.2" y="384.8" class="st0" width="74.2" height="5.8"/>
		<rect x="364.2" y="397.1" class="st0" width="74.2" height="5.8"/>
		<rect x="364.2" y="409.5" class="st0" width="74.2" height="5.8"/>
		<rect x="364.2" y="421.8" class="st0" width="74.2" height="5.8"/>
		<rect x="364.2" y="434.1" class="st0" width="74.2" height="5.8"/>
		<rect x="364.2" y="446.5" class="st0" width="74.2" height="5.8"/>
		<rect x="364.2" y="458.7" class="st0" width="74.2" height="5.8"/>
		<rect x="364.2" y="471.1" class="st0" width="74.2" height="5.8"/>
		<rect x="364.2" y="483.5" class="st0" width="74.2" height="5.8"/>
		<rect x="364.2" y="495.9" class="st0" width="74.2" height="5.8"/>
	</g>
	<polygon class="st0" points="406.7,178.6 403.4,114.4 401.3,178.6 	"/>
</g>
<polygon class="st0" points="30.5,518.4 196.5,518.4 196.5,129.3 92.4,129.3 43.6,227.2 43.6,251.9 30.5,304.2 "/>
<polyline class="st1" points="113.4,129.3 155.3,50.1 176.5,75.4 176.5,129.3 "/>
<rect x="175.2" y="148.5" class="st0" width="13.9" height="14.6"/>
<rect x="155.5" y="148.5" class="st0" width="13.9" height="14.6"/>
<rect x="135.9" y="148.5" class="st0" width="13.9" height="14.6"/>
<rect x="116.3" y="148.5" class="st0" width="13.9" height="14.6"/>
<rect x="96.5" y="148.5" class="st0" width="13.9" height="14.6"/>
<rect x="175.2" y="169.2" class="st0" width="13.9" height="14.6"/>
<rect x="155.5" y="169.2" class="st0" width="13.9" height="14.6"/>
<rect x="135.9" y="169.2" class="st0" width="13.9" height="14.6"/>
<rect x="116.3" y="169.2" class="st0" width="13.9" height="14.6"/>
<rect x="96.5" y="169.2" class="st0" width="13.9" height="14.6"/>
<rect x="77.9" y="169.2" class="st0" width="13.9" height="14.6"/>
<rect x="175.2" y="189.8" class="st0" width="13.9" height="14.6"/>
<rect x="155.5" y="189.8" class="st0" width="13.9" height="14.6"/>
<rect x="135.9" y="189.8" class="st0" width="13.9" height="14.6"/>
<rect x="116.3" y="189.8" class="st0" width="13.9" height="14.6"/>
<rect x="96.5" y="189.8" class="st0" width="13.9" height="14.6"/>
<rect x="77.9" y="189.8" class="st0" width="13.9" height="14.6"/>
<rect x="175.2" y="210.4" class="st0" width="13.9" height="14.6"/>
<rect x="155.5" y="210.4" class="st0" width="13.9" height="14.6"/>
<rect x="135.9" y="210.4" class="st0" width="13.9" height="14.6"/>
<rect x="116.3" y="210.4" class="st0" width="13.9" height="14.6"/>
<rect x="96.5" y="210.4" class="st0" width="13.9" height="14.6"/>
<rect x="77.9" y="210.4" class="st0" width="13.9" height="14.6"/>
<rect x="58.3" y="210.4" class="st0" width="13.9" height="14.6"/>
<rect x="175.2" y="230.9" class="st0" width="13.9" height="14.6"/>
<rect x="155.5" y="230.9" class="st0" width="13.9" height="14.6"/>
<rect x="135.9" y="230.9" class="st0" width="13.9" height="14.6"/>
<rect x="116.3" y="230.9" class="st0" width="13.9" height="14.6"/>
<rect x="96.5" y="230.9" class="st0" width="13.9" height="14.6"/>
<rect x="77.9" y="230.9" class="st0" width="13.9" height="14.6"/>
<rect x="58.3" y="230.9" class="st0" width="13.9" height="14.6"/>
<rect x="175.2" y="251.5" class="st0" width="13.9" height="14.6"/>
<rect x="155.5" y="251.5" class="st0" width="13.9" height="14.6"/>
<rect x="135.9" y="251.5" class="st0" width="13.9" height="14.6"/>
<rect x="116.3" y="251.5" class="st0" width="13.9" height="14.6"/>
<rect x="96.5" y="251.5" class="st0" width="13.9" height="14.6"/>
<rect x="77.9" y="251.5" class="st0" width="13.9" height="14.6"/>
<rect x="58.3" y="251.5" class="st0" width="13.9" height="14.6"/>
<rect x="175.2" y="272.2" class="st0" width="13.9" height="14.6"/>
<rect x="155.5" y="272.2" class="st0" width="13.9" height="14.6"/>
<rect x="135.9" y="272.2" class="st0" width="13.9" height="14.6"/>
<rect x="116.3" y="272.2" class="st0" width="13.9" height="14.6"/>
<rect x="96.5" y="272.2" class="st0" width="13.9" height="14.6"/>
<rect x="77.9" y="272.2" class="st0" width="13.9" height="14.6"/>
<rect x="58.3" y="272.2" class="st0" width="13.9" height="14.6"/>
<rect x="175.2" y="292.8" class="st0" width="13.9" height="14.6"/>
<rect x="155.5" y="292.8" class="st0" width="13.9" height="14.6"/>
<rect x="135.9" y="292.8" class="st0" width="13.9" height="14.6"/>
<rect x="116.3" y="292.8" class="st0" width="13.9" height="14.6"/>
<rect x="96.5" y="292.8" class="st0" width="13.9" height="14.6"/>
<rect x="77.9" y="292.8" class="st0" width="13.9" height="14.6"/>
<rect x="58.3" y="292.8" class="st0" width="13.9" height="14.6"/>
<rect x="38.6" y="292.8" class="st0" width="13.9" height="14.6"/>
<rect x="175.2" y="313.4" class="st0" width="13.9" height="14.6"/>
<rect x="155.5" y="313.4" class="st0" width="13.9" height="14.6"/>
<rect x="135.9" y="313.4" class="st0" width="13.9" height="14.6"/>
<rect x="116.3" y="313.4" class="st0" width="13.9" height="14.6"/>
<rect x="96.5" y="313.4" class="st0" width="13.9" height="14.6"/>
<rect x="77.9" y="313.4" class="st0" width="13.9" height="14.6"/>
<rect x="58.3" y="313.4" class="st0" width="13.9" height="14.6"/>
<rect x="38.6" y="313.4" class="st0" width="13.9" height="14.6"/>
<rect x="175.2" y="333.9" class="st0" width="13.9" height="14.6"/>
<rect x="155.5" y="333.9" class="st0" width="13.9" height="14.6"/>
<rect x="135.9" y="333.9" class="st0" width="13.9" height="14.6"/>
<rect x="116.3" y="333.9" class="st0" width="13.9" height="14.6"/>
<rect x="96.5" y="333.9" class="st0" width="13.9" height="14.6"/>
<rect x="77.9" y="333.9" class="st0" width="13.9" height="14.6"/>
<rect x="58.3" y="333.9" class="st0" width="13.9" height="14.6"/>
<rect x="38.6" y="333.9" class="st0" width="13.9" height="14.6"/>
<rect x="175.2" y="354.5" class="st0" width="13.9" height="14.6"/>
<rect x="155.5" y="354.5" class="st0" width="13.9" height="14.6"/>
<rect x="135.9" y="354.5" class="st0" width="13.9" height="14.6"/>
<rect x="116.3" y="354.5" class="st0" width="13.9" height="14.6"/>
<rect x="96.5" y="354.5" class="st0" width="13.9" height="14.6"/>
<rect x="77.9" y="354.5" class="st0" width="13.9" height="14.6"/>
<rect x="58.3" y="354.5" class="st0" width="13.9" height="14.6"/>
<rect x="38.6" y="354.5" class="st0" width="13.9" height="14.6"/>
<rect x="175.2" y="375.2" class="st0" width="13.9" height="14.6"/>
<rect x="155.5" y="375.2" class="st0" width="13.9" height="14.6"/>
<rect x="135.9" y="375.2" class="st0" width="13.9" height="14.6"/>
<rect x="116.3" y="375.2" class="st0" width="13.9" height="14.6"/>
<rect x="96.5" y="375.2" class="st0" width="13.9" height="14.6"/>
<rect x="77.9" y="375.2" class="st0" width="13.9" height="14.6"/>
<rect x="58.3" y="375.2" class="st0" width="13.9" height="14.6"/>
<rect x="38.6" y="375.2" class="st0" width="13.9" height="14.6"/>
<rect x="175.2" y="395.7" class="st0" width="13.9" height="14.6"/>
<rect x="155.5" y="395.7" class="st0" width="13.9" height="14.6"/>
<rect x="135.9" y="395.7" class="st0" width="13.9" height="14.6"/>
<rect x="116.3" y="395.7" class="st0" width="13.9" height="14.6"/>
<rect x="96.5" y="395.7" class="st0" width="13.9" height="14.6"/>
<rect x="77.9" y="395.7" class="st0" width="13.9" height="14.6"/>
<rect x="58.3" y="395.7" class="st0" width="13.9" height="14.6"/>
<rect x="38.6" y="395.7" class="st0" width="13.9" height="14.6"/>
<rect x="175.2" y="416.4" class="st0" width="13.9" height="14.6"/>
<rect x="155.5" y="416.4" class="st0" width="13.9" height="14.6"/>
<rect x="135.9" y="416.4" class="st0" width="13.9" height="14.6"/>
<rect x="116.3" y="416.4" class="st0" width="13.9" height="14.6"/>
<rect x="96.5" y="416.4" class="st0" width="13.9" height="14.6"/>
<rect x="77.9" y="416.4" class="st0" width="13.9" height="14.6"/>
<rect x="58.3" y="416.4" class="st0" width="13.9" height="14.6"/>
<rect x="38.6" y="416.4" class="st0" width="13.9" height="14.6"/>
<rect x="175.2" y="436.9" class="st0" width="13.9" height="14.6"/>
<rect x="155.5" y="436.9" class="st0" width="13.9" height="14.6"/>
<rect x="135.9" y="436.9" class="st0" width="13.9" height="14.6"/>
<rect x="116.3" y="436.9" class="st0" width="13.9" height="14.6"/>
<rect x="96.5" y="436.9" class="st0" width="13.9" height="14.6"/>
<rect x="77.9" y="436.9" class="st0" width="13.9" height="14.6"/>
<rect x="58.3" y="436.9" class="st0" width="13.9" height="14.6"/>
<rect x="38.6" y="436.9" class="st0" width="13.9" height="14.6"/>
<rect x="175.2" y="457.6" class="st0" width="13.9" height="14.6"/>
<rect x="155.5" y="457.6" class="st0" width="13.9" height="14.6"/>
<rect x="135.9" y="457.6" class="st0" width="13.9" height="14.6"/>
<rect x="116.3" y="457.6" class="st0" width="13.9" height="14.6"/>
<rect x="96.5" y="457.6" class="st0" width="13.9" height="14.6"/>
<rect x="77.9" y="457.6" class="st0" width="13.9" height="14.6"/>
<rect x="58.3" y="457.6" class="st0" width="13.9" height="14.6"/>
<rect x="38.6" y="457.6" class="st0" width="13.9" height="14.6"/>
<rect x="175.2" y="478.1" class="st0" width="13.9" height="14.6"/>
<rect x="155.5" y="478.1" class="st0" width="13.9" height="14.6"/>
<rect x="135.9" y="478.1" class="st0" width="13.9" height="14.6"/>
<rect x="116.3" y="478.1" class="st0" width="13.9" height="14.6"/>
<rect x="96.5" y="478.1" class="st0" width="13.9" height="14.6"/>
<rect x="77.9" y="478.1" class="st0" width="13.9" height="14.6"/>
<rect x="58.3" y="478.1" class="st0" width="13.9" height="14.6"/>
<rect x="38.6" y="478.1" class="st0" width="13.9" height="14.6"/>
<rect x="175.2" y="498.7" class="st0" width="13.9" height="14.6"/>
<rect x="155.5" y="498.7" class="st0" width="13.9" height="14.6"/>
<rect x="135.9" y="498.7" class="st0" width="13.9" height="14.6"/>
<rect x="116.3" y="498.7" class="st0" width="13.9" height="14.6"/>
<rect x="96.5" y="498.7" class="st0" width="13.9" height="14.6"/>
<rect x="77.9" y="498.7" class="st0" width="13.9" height="14.6"/>
<rect x="58.3" y="498.7" class="st0" width="13.9" height="14.6"/>
<rect x="38.6" y="498.7" class="st0" width="13.9" height="14.6"/>
<g>
	<line class="st0" x1="830.7" y1="491.1" x2="444.5" y2="491.1"/>
	<path class="st0" d="M830.7,483.5H573.5c-9.6,0-13.7-12.9-5.9-18.9l115.4-86.3l-140.9,78.4c-24.2,13.5-50.9,22-78.1,24.8l-19.7,2.1
		"/>
	<g>
		<line class="st0" x1="677.3" y1="382.7" x2="809.5" y2="483.5"/>
		<line class="st0" x1="672" y1="386.6" x2="799.2" y2="483.5"/>
		<line class="st0" x1="666.9" y1="390.4" x2="788.8" y2="483.5"/>
		<line class="st0" x1="661.6" y1="394.4" x2="778.4" y2="483.5"/>
		<line class="st0" x1="656.3" y1="398.3" x2="768.1" y2="483.5"/>
		<line class="st0" x1="651.1" y1="402.2" x2="757.7" y2="483.5"/>
		<line class="st0" x1="645.9" y1="406.1" x2="747.3" y2="483.5"/>
		<line class="st0" x1="640.7" y1="410" x2="737" y2="483.5"/>
		<line class="st0" x1="635.4" y1="413.9" x2="726.7" y2="483.5"/>
		<line class="st0" x1="630.3" y1="417.8" x2="716.2" y2="483.5"/>
		<line class="st0" x1="625" y1="421.7" x2="705.9" y2="483.5"/>
		<line class="st0" x1="619.9" y1="425.6" x2="695.5" y2="483.5"/>
		<line class="st0" x1="614.7" y1="429.5" x2="685.1" y2="483.5"/>
		<line class="st0" x1="609.5" y1="433.4" x2="674.8" y2="483.5"/>
		<line class="st0" x1="604.2" y1="437.3" x2="664.4" y2="483.5"/>
		<line class="st0" x1="599.1" y1="441.2" x2="654" y2="483.5"/>
		<line class="st0" x1="593.8" y1="445.1" x2="643.8" y2="483.5"/>
		<line class="st0" x1="588.6" y1="449" x2="633.4" y2="483.5"/>
		<line class="st0" x1="583.4" y1="452.9" x2="623" y2="483.5"/>
		<line class="st0" x1="578.1" y1="456.9" x2="612.6" y2="483.5"/>
		<line class="st0" x1="572.9" y1="460.7" x2="602.3" y2="483.5"/>
		<line class="st0" x1="567.7" y1="464.6" x2="591.9" y2="483.5"/>
	</g>
</g>
<path class="st0" d="M771.3,510.1L771.3,510.1c1.8,0,3.4-1.3,3.9-3.2l3.3-15.7h-14.2l3.3,15.7C767.9,508.7,769.4,510.1,771.3,510.1z
	"/>
<path class="st0" d="M528.5,510.1L528.5,510.1c1.8,0,3.4-1.3,3.9-3.2l3.3-15.7h-14.2l3.3,15.7C525.2,508.7,526.8,510.1,528.5,510.1z
	"/>
<line class="st0" x1="830.7" y1="510.9" x2="444.5" y2="510.9"/>
<rect x="842.9" y="176.2" class="st1" width="60" height="38.5"/>
<rect x="887.9" y="214.6" class="st0" width="2.7" height="44.7"/>
<rect x="856.2" y="214.6" class="st0" width="2.7" height="44.7"/>
<rect x="831.4" y="254.5" class="st2" width="82.6" height="9.8"/>
<g>
	<rect x="210.4" y="326.7" class="st0" width="136.4" height="191.8"/>
	<rect x="325.4" y="335.4" class="st0" width="15.3" height="24.6"/>
	<rect x="303" y="335.4" class="st0" width="15.3" height="24.6"/>
	<rect x="281.6" y="335.4" class="st0" width="15.3" height="24.6"/>
	<rect x="260.2" y="335.4" class="st0" width="15.3" height="24.6"/>
	<rect x="238.9" y="335.4" class="st0" width="15.3" height="24.6"/>
	<rect x="217.7" y="335.4" class="st0" width="15.3" height="24.6"/>
	<line class="st0" x1="339.7" y1="365.9" x2="217.7" y2="365.9"/>
	<g>
		<rect x="324.3" y="371.6" class="st0" width="15.3" height="24.6"/>
		<rect x="303" y="371.6" class="st0" width="15.3" height="24.6"/>
		<rect x="281.6" y="371.6" class="st0" width="15.3" height="24.6"/>
		<rect x="260.2" y="371.6" class="st0" width="15.3" height="24.6"/>
		<rect x="238.9" y="371.6" class="st0" width="15.3" height="24.6"/>
		<rect x="217.7" y="371.6" class="st0" width="15.3" height="24.6"/>
	</g>
	<line class="st0" x1="339.7" y1="402.2" x2="217.7" y2="402.2"/>
	<g>
		<rect x="324.3" y="408.2" class="st0" width="15.3" height="24.6"/>
		<rect x="303" y="408.2" class="st0" width="15.3" height="24.6"/>
		<rect x="281.6" y="408.2" class="st0" width="15.3" height="24.6"/>
		<rect x="260.2" y="408.2" class="st0" width="15.3" height="24.6"/>
		<rect x="238.9" y="408.2" class="st0" width="15.3" height="24.6"/>
		<rect x="217.7" y="408.2" class="st0" width="15.3" height="24.6"/>
	</g>
	<line class="st0" x1="339.7" y1="438.7" x2="217.7" y2="438.7"/>
	<g>
		<rect x="324.3" y="444.6" class="st0" width="15.3" height="24.6"/>
		<rect x="303" y="444.6" class="st0" width="15.3" height="24.6"/>
		<rect x="281.6" y="444.6" class="st0" width="15.3" height="24.6"/>
		<rect x="260.2" y="444.6" class="st0" width="15.3" height="24.6"/>
		<rect x="238.9" y="444.6" class="st0" width="15.3" height="24.6"/>
		<rect x="217.7" y="444.6" class="st0" width="15.3" height="24.6"/>
	</g>
	<line class="st0" x1="339.7" y1="475" x2="217.7" y2="475"/>
	<g>
		<rect x="324.3" y="480.9" class="st0" width="15.3" height="24.6"/>
		<rect x="303" y="480.9" class="st0" width="15.3" height="24.6"/>
		<rect x="281.6" y="480.9" class="st0" width="15.3" height="24.6"/>
		<rect x="260.2" y="480.9" class="st0" width="15.3" height="24.6"/>
		<rect x="238.9" y="480.9" class="st0" width="15.3" height="24.6"/>
		<rect x="217.7" y="480.9" class="st0" width="15.3" height="24.6"/>
	</g>
	<line class="st0" x1="339.7" y1="511.4" x2="217.7" y2="511.4"/>
	<rect x="234.4" y="313.1" class="st2" width="85.3" height="14.3"/>
	<rect x="226.3" y="187.3" class="st0" width="99" height="59.3"/>
	<rect x="230.6" y="190.9" class="st0" width="90.4" height="51.9"/>
	<rect x="300.6" y="246.1" class="st0" width="4.5" height="68.6"/>
	<rect x="248.2" y="246.1" class="st0" width="4.5" height="68.6"/>
	<g>
		<g>
			<g>
				<path class="st3" d="M297.7,214.4c-0.4,2,1.6,4.1,4.5,4.8c2.9,0.7,5.7-0.4,6.1-2.4c0.4-2-1.6-4.1-4.5-4.8
					C300.9,211.4,298.2,212.4,297.7,214.4z"/>
				<path class="st3" d="M297.9,226c-0.5,2.3,1.8,4.9,5.4,5.7c3.5,0.8,6.8-0.5,7.3-2.8c0.5-2.3-1.8-4.9-5.4-5.7
					C301.7,222.3,298.4,223.5,297.9,226z"/>
				<path class="st3" d="M275.9,205.1c0,0,2.3,7,7.5,6.3c1-0.2,2.3-0.2,3.4,0.1c1.2,0.3,2,0.8,2.6,0.9c2.3,0.9,6.5-3.9,6.8-7.5
					c0-0.1,0-0.3,0.1-0.6c0.4-1.9,3.4-2.8,6.6-2.1c3.3,0.8,5.5,2.8,5.1,4.7c-0.4,1.8-2.8,2.7-5.6,2.3c-0.2,0-7.5-1-9.9,6.5
					c-0.1,0.2-0.3,1.2-0.3,1.2l0,0c-0.6,2.3-3.9,3.5-7.4,2.8c-3.4-0.7-5.6-2.8-5.4-5c0-0.4,0.3-5.9-7.9-5.6l0,0c-0.3,0-0.9,0-1.3,0
					c-3.2-0.3-5.7-2-5.6-3.9c0.1-1.9,2.8-3.3,6-3C273.1,202.3,275.3,203.6,275.9,205.1z"/>
				<path class="st3" d="M264.3,223c-3.4,0.3-6,2.3-5.8,4.7c0.2,2.3,2.9,4.1,6.3,3.9c3.4-0.3,6-2.3,5.8-4.8
					C270.5,224.5,267.6,222.8,264.3,223z"/>
			</g>
		</g>
		<g>
			<path class="st3" d="M275.7,227c0.5,2.4,3.4,4.4,6.9,4.6c4,0.3,7.4-1.8,7.5-4.6c0.2-2.8-2.9-5.4-6.9-5.7c-0.7-0.1-1.3,0-2,0.1
				c0,0-0.8,0.1-1.3,0.1c-8.1-0.2-6.7-5.9-6.7-5.9c0.1-0.4,0.1-0.8,0-1.2c-0.4-1.8-3-2.9-5.8-2.8c-5,0.3-6.5-4.6-7-6.1
				c0,0-0.1-0.3,0-0.8c0-0.3,0-0.4-0.1-0.7c-0.4-1.9-3.4-2.8-6.6-2.1c-3.3,0.8-5.5,2.8-5.1,4.7c0.4,1.7,2.7,2.2,5.6,2.3
				c6.2,0.2,7.1,7.5,7.2,7.8c0.4,1.8,2.9,2.9,5.7,2.8c5.7-0.4,7.9,3.8,8.3,6C275.5,225.6,275.7,226.6,275.7,227z"/>
			<path class="st3" d="M256.5,214.2c0.5,2.1-1.7,4.3-4.7,4.9c-3,0.7-5.9-0.4-6.4-2.5c-0.5-2.1,1.7-4.3,4.7-4.9
				C253.2,211.1,256,212.1,256.5,214.2z"/>
			<path class="st3" d="M253.2,226c0.5,2.3-1.8,4.8-5.2,5.5c-3.4,0.8-6.5-0.5-7-2.8s1.8-4.8,5.2-5.5
				C249.5,222.5,252.7,223.6,253.2,226z"/>
			<path class="st3" d="M286.2,202.2c-2.8,0.2-4.9,1.9-4.8,3.9c0.1,1.9,2.4,3.4,5.2,3.2c2.8-0.2,4.9-1.9,4.8-3.9
				C291.3,203.3,289,201.9,286.2,202.2z"/>
		</g>
	</g>
</g>
<path d="M525.1,553.1c-110.3,0.2-220.6,0.3-330.9,0.5c-27.7,0-55.5-0.1-83.3-0.2c-5.2,0-10.4-0.2-15.6-0.3c-0.9,0-1.9-0.1-2.8-0.3
	c-0.3-0.1-0.7-0.7-0.7-1s0.3-0.9,0.6-1.1c0.7-0.3,1.4-0.4,2.2-0.4c2.3-0.1,4.4-0.2,6.7-0.2c64.1-0.3,128.2-0.5,192.3-0.7
	c111.6-0.2,223.4-0.3,335-0.4c106.3-0.1,212.6-0.3,318.8-0.3c2.7,0,5.3,0,8,0c0.8,0,1.5,0,2.2,0.2c0.8,0.2,1.3,1.1,1.3,1.8
	c-0.1,0.8-0.5,1.3-1.2,1.5c-0.3,0.1-0.6,0.1-0.9,0.2c-0.5,0-1.1,0-1.6,0C811.8,552.6,668.4,552.8,525.1,553.1L525.1,553.1z"/>
<path d="M697,569.6c-13.2,0-26.6,0-39.8,0c-4,0-8-0.2-12-0.3c-0.7,0-1.3-0.1-1.8-0.2c-0.3-0.1-0.7-0.3-0.6-0.8
	c0.1-0.3,0.3-0.6,0.7-0.7c0.3-0.2,0.8-0.2,1.3-0.2c0.9,0,1.8-0.1,2.8-0.1c21.9-0.1,43.8-0.3,65.7-0.3c8.9,0,17.7,0,26.6,0.1
	c3.2,0,6.3,0.2,9.5,0.3c0.8,0,1.5,0.3,2.3,0.4c0.2,0,0.3,0.3,0.3,0.5c0,0.2-0.2,0.4-0.3,0.4c-0.5,0.2-0.9,0.3-1.4,0.3
	c-3.1,0.2-6.2,0.3-9.2,0.4C726.1,569.7,711.6,569.7,697,569.6C697,569.7,697,569.7,697,569.6z"/>
<path d="M467.7,566.9c0.3-0.2,0.5-0.4,0.7-0.4c0.8-0.1,1.7-0.1,2.5-0.2c8.9-0.1,17.7-0.3,26.6-0.3c10.8-0.1,21.6,0,32.4,0
	c1.5,0,2.9,0.1,4.4,0.2c0.5,0,1,0.2,1.1,0.8c0.1,0.4-0.3,0.8-1.3,0.8c-2,0.1-4.1,0.3-6.1,0.3c-15.6-0.1-31.2-0.1-46.8-0.3
	c-3.8,0-7.5-0.1-11.4-0.2C469.3,567.5,468.4,567.7,467.7,566.9z"/>
<path d="M438.1,568.6c0.3-0.1,0.4-0.3,0.7-0.3c0.8-0.1,1.5-0.1,2.3-0.2c3.1-0.1,6.2-0.1,9.2-0.1c0.6,0,1.1,0,1.7,0
	c0.4,0,0.8,0.2,0.9,0.7c0.1,0.3-0.3,0.7-0.8,0.8c-0.2,0-0.4,0-0.7,0c-4-0.1-8.1-0.1-12.2-0.2C438.8,569.3,438.3,569.4,438.1,568.6z"
	/>
<path d="M274.6,569.6c-0.8,0.2-1.3,0.4-1.8,0.4c-3,0.1-6,0.2-9.1,0.2c-0.2,0-0.3,0-0.4,0c-0.7-0.1-1.1-0.3-1-0.8
	c0.1-0.5,0.4-0.7,0.8-0.8c0.4-0.1,0.8-0.1,1.3-0.1c2.9,0.1,5.9,0.3,8.8,0.3C273.7,568.9,274.1,568.9,274.6,569.6z"/>
<path d="M878.9,569.6c-0.8,0.2-1.3,0.4-1.8,0.4c-3,0.1-6,0.2-9.1,0.2c-0.2,0-0.3,0-0.4,0c-0.7-0.1-1.1-0.3-1-0.8
	c0.1-0.5,0.4-0.7,0.8-0.8c0.4-0.1,0.8-0.1,1.3-0.1c2.9,0.1,5.9,0.3,8.8,0.3C877.9,568.9,878.4,568.9,878.9,569.6z"/>
<path d="M652.4,579.6c-0.6,0.1-1,0.3-1.5,0.3c-1.8,0.1-3.5,0.3-5.3,0.3c-21.8,0.3-43.5,0.3-65.3,0.1c-0.8,0-1.7-0.1-2.5-0.3
	c-0.2,0-0.4-0.3-0.5-0.6c-0.1-0.4,0.2-0.7,0.5-0.8c0.3-0.1,0.6-0.1,0.8-0.1c0.7,0,1.3-0.1,1.9-0.1c9.1-0.1,18.3-0.3,27.4-0.2
	c13.1,0,26.1,0.2,39.2,0.3c1.4,0,2.8,0.2,4.2,0.3C651.8,578.7,652.3,578.7,652.4,579.6z"/>
<path d="M430,581.1c-0.5,0.3-0.8,0.5-1.1,0.5c-0.8,0.1-1.7,0.1-2.5,0.1c-16.3,0.1-32.5,0.3-48.9,0.3c-1.8,0-3.5-0.1-5.3-0.1
	c-0.4,0-0.8,0-1.3-0.1c-0.4-0.1-0.8-0.2-0.9-0.7c-0.1-0.4,0.3-0.7,1.1-0.8c0.5-0.1,1-0.1,1.5-0.1c2.7-0.1,5.4-0.2,8-0.1
	c15.1,0.1,30.2,0.2,45.3,0.3c1,0,1.9,0,2.9,0.1C429.1,580.7,429.5,580.9,430,581.1z"/>
<path d="M687.2,569.7c-2.8-0.1-5.6-0.2-8.4-0.3c-1.1,0-1.7-0.3-1.5-0.7c0.3-0.7,1-0.4,1.5-0.5c5.4-0.2,10.6-0.3,16-0.3
	c0.7,0,1.4,0.1,2.1,0.2c0.3,0.1,0.6,0.4,0.7,0.8c0.1,0.3-0.3,0.7-0.6,0.8c-0.7,0.1-1.4,0.2-2.1,0.2c-2.5,0-5,0-7.5,0
	C687.2,569.8,687.2,569.8,687.2,569.7z"/>
<path d="M185.5,580.2c-0.5,0.3-0.8,0.5-1.1,0.5c-0.8,0.1-1.7,0.1-2.5,0.1c-16.3,0.1-32.5,0.3-48.9,0.3c-1.8,0-3.5-0.1-5.3-0.1
	c-0.4,0-0.8,0-1.3-0.1c-0.4-0.1-0.8-0.2-0.9-0.7c-0.1-0.4,0.3-0.7,1.1-0.8c0.5-0.1,1-0.1,1.5-0.1c2.7-0.1,5.4-0.2,8-0.1
	c15.1,0.1,30.2,0.2,45.3,0.3c1,0,1.9,0,2.9,0.1C184.6,579.8,184.9,580,185.5,580.2z"/>
</svg>
