<?xml version="1.0" encoding="utf-8"?>
<!-- Generator: Adobe Illustrator 24.3.0, SVG Export Plug-In . SVG Version: 6.00 Build 0)  -->
<svg version="1.1" id="Capa_1" xmlns="http://www.w3.org/2000/svg" xmlns:xlink="http://www.w3.org/1999/xlink" x="0px" y="0px"
	 viewBox="0 0 1920 780" style="enable-background:new 0 0 1920 780;" xml:space="preserve">
<style type="text/css">
	.st0{fill:#FBE5B3;}
	.st1{fill:#E7ECF0;}
	.st2{fill:#FF7A36;}
</style>
<rect y="-32" class="st0" width="1920" height="812"/>
<path class="st1" d="M-4.8,445c64.9-49,167.1-112.2,305.6-141.8c206.6-44.2,273.6,33.3,537.9,52.3c423,30.4,598.3-143.2,960.6-38.3
	c65,18.8,115.5,40.6,146.8,55.4c-0.1-75.1-18.1-275.8-18.3-275.8c-0.5,0-0.9,207.6-1.4-26.8c-40-12.2-102.7-28.2-180.9-34.2
	c-187.1-14.4-288.2,41.8-446.9,62.4c-30.1,3.9-51.4,5.7-70.8,6.2c0,0-19.5,0.5-39.1-0.4C1072,98.9,935.1,60.1,935.1,60.1
	C851.2,34.5,741.4,9.8,610.9,2.5C331.4-13,111.7,60-2.7,107.1C-3.4,219.7-4.1,332.4-4.8,445"/>
<path class="st2" d="M-12,291.4c107.9,20,281.4,41.4,488.5,14.5c372.7-48.5,429.2-198.4,665.1-165.2
	c256.9,36.1,348.6,236.2,605.7,207.3c80.3-9,160.8-67.4,198.7-87.4c-0.1,83.3-18.2,251.1-18.4,251.1c-0.5,0-0.9-230.3-1.4,29.7
	c-29.8,7-75,16.7-130.3,24.9c-281.2,41.3-420.5-17.2-625.8-18.5C892.7,546,886.2,651.1,604.5,671.1c-163.3,11.6-370.3-8.8-616.5-116
	V291.4z"/>
</svg>
