<?xml version="1.0" encoding="utf-8"?>
<!-- Generator: Adobe Illustrator 24.3.0, SVG Export Plug-In . SVG Version: 6.00 Build 0)  -->
<svg version="1.1" id="Capa_1" xmlns="http://www.w3.org/2000/svg" xmlns:xlink="http://www.w3.org/1999/xlink" x="0px" y="0px"
	 viewBox="0 0 19.4 9.1" style="enable-background:new 0 0 19.4 9.1;" xml:space="preserve">
<style type="text/css">
	.st0{fill:#FCE6B3;}
	.st1{opacity:0.6;}
	.st2{fill:#F4DCAB;}
</style>
<rect x="0" y="0" class="st0" width="19.4" height="9.1"/>
<g class="st1">
	<path class="st2" d="M15.3,4.1c-0.1,0.5,0.4,1.1,1.2,1.2c0.8,0.2,1.5-0.1,1.6-0.6c0.1-0.5-0.4-1.1-1.2-1.2S15.4,3.6,15.3,4.1z"/>
	<path class="st2" d="M15.5,6.9c-0.1,0.6,0.5,1.3,1.4,1.5c0.9,0.2,1.7-0.2,1.9-0.8c0.1-0.6-0.5-1.3-1.4-1.5
		C16.5,6,15.6,6.3,15.5,6.9z"/>
	<path class="st2" d="M9.7,1.6c0,0,0.6,1.8,1.9,1.6c0.2,0,0.6,0,0.9,0c0.3,0.1,0.5,0.2,0.7,0.2c0.6,0.2,1.7-1,1.7-2c0,0,0-0.1,0-0.1
		c0.1-0.5,0.9-0.7,1.7-0.6C17.4,0.9,18,1.5,17.9,2c-0.1,0.4-0.7,0.7-1.4,0.6c0,0-1.9-0.2-2.5,1.7c0,0-0.1,0.3-0.1,0.3v0
		c-0.1,0.6-1,0.9-1.9,0.8c-0.9-0.2-1.5-0.7-1.4-1.3c0-0.1,0.1-1.5-2-1.4h0c-0.1,0-0.2,0-0.3,0c-0.8,0-1.5-0.5-1.5-1
		c0-0.5,0.7-0.9,1.5-0.8C9,0.9,9.6,1.2,9.7,1.6z"/>
	<path class="st2" d="M6.9,6.2C6,6.3,5.4,6.9,5.4,7.5c0,0.6,0.8,1,1.6,1c0.9-0.1,1.5-0.6,1.5-1.2C8.4,6.6,7.7,6.1,6.9,6.2z"/>
	<path class="st2" d="M9.9,7.1c0.1,0.6,0.9,1.1,1.8,1.2c1,0.1,1.9-0.5,1.9-1.2c0-0.7-0.8-1.4-1.8-1.4c-0.2,0-0.3,0-0.5,0
		c0,0-0.2,0-0.3,0c-2.1,0-1.8-1.5-1.8-1.5c0-0.1,0-0.2,0-0.3C9,3.4,8.3,3.2,7.6,3.2C6.3,3.3,5.9,2.1,5.8,1.7c0,0,0-0.1,0-0.2
		c0-0.1,0-0.2,0-0.2C5.7,0.8,4.9,0.6,4.1,0.8C3.2,1,2.7,1.5,2.8,2c0.1,0.4,0.7,0.6,1.4,0.6c1.6,0,1.9,1.9,1.9,2
		C6.3,5,6.9,5.3,7.6,5.2c1.5-0.1,2,0.9,2.2,1.5C9.8,6.7,9.8,7,9.9,7.1z"/>
	<path class="st2" d="M4.6,4.1c0.1,0.5-0.4,1.1-1.2,1.3C2.6,5.6,1.9,5.3,1.8,4.8C1.6,4.2,2.2,3.7,3,3.5C3.7,3.3,4.5,3.6,4.6,4.1z"/>
	<path class="st2" d="M3.8,6.9C4,7.5,3.4,8.2,2.5,8.4C1.6,8.6,0.8,8.3,0.7,7.7C0.5,7.1,1.1,6.5,2,6.2C2.9,6,3.7,6.3,3.8,6.9z"/>
	<path class="st2" d="M12.4,0.9c-0.7,0.1-1.3,0.5-1.2,1c0,0.5,0.6,0.9,1.4,0.8c0.7-0.1,1.3-0.5,1.2-1C13.7,1.2,13.1,0.8,12.4,0.9z"
		/>
</g>
</svg>
