<?xml version="1.0" encoding="utf-8"?>
<!-- Generator: Adobe Illustrator 24.3.0, SVG Export Plug-In . SVG Version: 6.00 Build 0)  -->
<svg version="1.1" id="Capa_1" xmlns="http://www.w3.org/2000/svg" xmlns:xlink="http://www.w3.org/1999/xlink" x="0px" y="0px"
	 viewBox="0 0 100 45" style="enable-background:new 0 0 100 45;" xml:space="preserve">
<style type="text/css">
	.st0{fill:#FBE5B3;}
	.st1{opacity:0.6;}
	.st2{fill:#F4DCAB;}
</style>
<rect y="-0.5" class="st0" width="100" height="47"/>
<g class="st1">
	<path class="st2" d="M77.7,21.2c-0.5,2.6,2.2,5.4,6.1,6.2c3.9,0.8,7.5-0.7,8.1-3.3c0.5-2.6-2.2-5.4-6.1-6.2S78.3,18.5,77.7,21.2z"
		/>
	<path class="st2" d="M78.9,35.8c-0.7,3.2,2.6,6.5,7.3,7.5c4.7,1,9-0.8,9.6-4c0.6-3.1-2.6-6.5-7.3-7.5
		C83.9,30.8,79.6,32.6,78.9,35.8z"/>
	<path class="st2" d="M49,8.4c0,0,3.2,9.2,10,8.2c1.3-0.2,3-0.2,4.5,0c1.6,0.3,2.7,0.9,3.5,1.2c3,1.1,8.6-5.3,8.8-10.2
		c0-0.2,0-0.5,0-0.8c0.5-2.5,4.4-3.8,8.7-2.9c4.3,0.9,7.3,3.6,6.8,6.2c-0.5,2.3-3.6,3.6-7.4,3.1c-0.2,0-10-1.2-12.9,8.8
		c-0.1,0.2-0.4,1.6-0.4,1.6v0c-0.7,3-5,4.8-9.7,3.9c-4.4-0.8-7.5-3.7-7.3-6.5c0-0.5,0.3-7.8-10.6-7.2h0c-0.5,0-1.2,0-1.7,0
		c-4.3-0.2-7.6-2.5-7.5-5c0.1-2.5,3.6-4.4,7.9-4.2C45.2,4.9,48.1,6.4,49,8.4z"/>
	<path class="st2" d="M34.2,32.1c-4.4,0.4-7.8,3.3-7.5,6.4c0.2,3.1,4,5.3,8.4,4.9c4.4-0.4,7.8-3.3,7.5-6.4
		C42.4,33.9,38.6,31.7,34.2,32.1z"/>
	<path class="st2" d="M49.7,36.6c0.7,3.2,4.5,5.7,9.2,6c5.3,0.3,9.7-2.5,9.9-6.3c0.2-3.8-4-7-9.3-7.3c-0.9-0.1-1.8,0-2.6,0.1
		c0,0-1,0.2-1.8,0.2c-10.8,0-9.1-7.6-9.1-7.6c0.1-0.5,0.1-1-0.1-1.5c-0.6-2.4-4-3.8-7.8-3.5c-6.6,0.5-8.7-5.6-9.3-7.7
		c0,0-0.1-0.5-0.1-1.2c0-0.4,0-0.8-0.1-1.1c-0.6-2.5-4.6-3.7-8.8-2.6c-4.3,1-7.2,3.9-6.6,6.4c0.5,2.3,3.6,2.8,7.5,2.9
		c8.3,0.1,9.6,9.8,9.7,10.2c0.7,2.4,3.9,3.9,7.6,3.5c7.5-0.7,10.5,4.9,11.2,7.8C49.3,34.8,49.6,36.1,49.7,36.6z"/>
	<path class="st2" d="M22.5,21.1c0.7,2.7-2.1,5.7-6.1,6.7c-4,1-7.8-0.5-8.5-3.2c-0.7-2.7,2.1-5.7,6.1-6.7
		C18.1,16.9,21.9,18.4,22.5,21.1z"/>
	<path class="st2" d="M18.5,35.7c0.7,3-2.3,6.3-6.7,7.4c-4.5,1.1-8.7-0.5-9.4-3.5c-0.7-3,2.3-6.3,6.7-7.4
		C13.6,31.1,17.8,32.7,18.5,35.7z"/>
	<path class="st2" d="M62.8,4.5c-3.7,0.3-6.5,2.7-6.3,5.3c0.2,2.6,3.3,4.4,7,4.1c3.7-0.3,6.5-2.7,6.3-5.3C69.6,6,66.5,4.2,62.8,4.5z
		"/>
</g>
</svg>
