<?xml version="1.0" encoding="utf-8"?>
<!-- Generator: Adobe Illustrator 24.3.0, SVG Export Plug-In . SVG Version: 6.00 Build 0)  -->
<svg version="1.1" id="Capa_1" xmlns="http://www.w3.org/2000/svg" xmlns:xlink="http://www.w3.org/1999/xlink" x="0px" y="0px"
	 viewBox="0 0 1120.1 653.5" style="enable-background:new 0 0 1120.1 653.5;" xml:space="preserve">
<style type="text/css">
	.st0{fill:#FFA83E;}
	.st1{fill:#FFFFFF;}
	.st2{fill:#F88667;}
	.st3{fill:#41C7D0;}
	.st4{fill:#110239;}
	.st5{fill:#E45940;}
	.st6{fill:#D0D1DE;}
	.st7{fill:#ABADC4;}
	.st8{fill:#00A5B0;}
</style>
<g>
	<circle class="st0" cx="534.1" cy="338.1" r="202.4"/>
	
		<ellipse transform="matrix(0.1213 -0.9926 0.9926 0.1213 133.6557 827.1744)" class="st1" cx="534.1" cy="338.1" rx="153.4" ry="153.4"/>
	
		<ellipse transform="matrix(0.9737 -0.2278 0.2278 0.9737 -62.9663 130.5185)" class="st0" cx="534.1" cy="338.1" rx="109.6" ry="109.6"/>
	<path class="st1" d="M609.5,338.1c0,41.7-33.8,75.4-75.4,75.4c-41.7,0-75.4-33.8-75.4-75.4c0-41.7,33.8-75.4,75.4-75.4
		C575.7,262.7,609.5,296.4,609.5,338.1z"/>
	<path class="st0" d="M568.9,338.1c0,19.2-15.6,34.8-34.8,34.8c-19.2,0-34.8-15.6-34.8-34.8c0-19.2,15.6-34.8,34.8-34.8
		C553.3,303.3,568.9,318.9,568.9,338.1z"/>
</g>
<g>
	<path class="st2" d="M624.2,247.7c0,0-2.9,7.1-2.8,6.9c0.1-0.2-4.5-2.2-4.8-2.1c-0.3,0.1-4.1-0.1-5.7-0.4c-1.6-0.3-2.8-1.4-3.3-1.7
		c-0.6-0.3-1.5-1.4-0.7-1.7c0.7-0.2,1.6,0.8,2.1,1c0.5,0.2,2.2,0.2,2.2,0.2s-0.6-0.3-1.9-0.8c-1.5-0.6-3.7-1.5-4.2-1.9
		c-0.4-0.4-0.3-1.3,0.8-1.1c1.4,0.3,2.7,0.9,2.9,1c0.2,0.1,2.4,0.9,2.4,0.9s-1.9-0.7-2.6-1c-0.8-0.3-2.9-1.2-4.2-1.8
		c-1.3-0.6-1-2,0.2-1.9c0.9,0.1,3.8,1.6,4.3,1.8c0.5,0.2,2.5,1.1,2.5,1.1s-2.4-1.1-2.8-1.4c-0.4-0.3-3.1-1.3-3.4-2.1
		c-0.2-0.4,0-1.2,1-1c1.1,0.2,2.7,0.8,3.4,1.2c0.6,0.3,4.4,2.1,5.3,2.2c0.8,0,1.6,0,1.6-1l1.3-2.4c0,0,0.9,0.4,1.3,2.6
		C619.5,245.3,621.5,246.8,624.2,247.7z"/>
	<g>
		<g>
			<path class="st3" d="M704.6,276.1c0-5.9-4.7-10.9-10.6-11.7c-9.6-1.5-27.6-4.2-33-5.5c-7.5-1.7-38.2-12-38.2-12l-3.4,8.1
				c0,0,33.4,16.8,39.4,18.1c6,1.3,36.8,12.3,42.8,8.8C703.8,280.7,704.6,278.5,704.6,276.1z"/>
		</g>
	</g>
	<g>
		<polygon class="st4" points="729,356.5 727,350.7 640.3,350.7 642.1,356.5 		"/>
		<polygon class="st4" points="739.3,387.4 737.3,381.5 650.1,381.5 652,387.4 		"/>
		<polygon class="st4" points="715.9,325.6 714,319.8 627.2,319.8 629.1,325.6 		"/>
		<polygon class="st4" points="749.7,418.6 747.7,412.7 660,412.7 661.9,418.6 		"/>
		<polygon class="st4" points="760.2,450.2 758.2,444.2 670.1,444.2 672,450.2 		"/>
		<polygon class="st4" points="770.9,482.2 768.8,476.1 680.2,476.1 682.2,482.2 		"/>
		<polygon class="st4" points="781.6,514.4 779.6,508.3 690.5,508.3 692.4,514.4 		"/>
		<path class="st4" d="M791.6,560.9h0.4c2.7,0,4.7-2.7,3.8-5.3l-81.5-244c-0.5-1.6-2.1-2.7-3.8-2.7h-5.6l82.8,249.3
			C788.3,559.8,789.8,560.9,791.6,560.9z"/>
		<path class="st4" d="M703.4,560.9h0.4c2.7,0,4.6-2.6,3.8-5.2l-77.9-244c-0.5-1.7-2.1-2.8-3.8-2.8h-0.1c-2.7,0-4.6,2.6-3.8,5.2
			l77.5,244C700.1,559.8,701.6,560.9,703.4,560.9z"/>
	</g>
	<path class="st2" d="M703.2,237.9c-0.2,0.2-0.3,0.4-0.5,0.6c-1.7,1.7-3.5,3.5-5.5,4.8c-1.2,0.8-3.1,1.3-4.2,2.2
		c-0.4,0.3-0.9,0.7-1.3,0.9c0.6,3.4,2.1,12.5,1.9,16c0,0,11-0.8,15-5.2C708.5,257.2,703.9,245,703.2,237.9z"/>
	<path class="st5" d="M697.3,256.3c0.8-3.1,2.5-6.2,5-8.3c0.9-0.7,1.7-1.4,2.6-2c-0.8-2.9-1.5-5.8-1.7-8.1c-0.2,0.2-0.3,0.4-0.5,0.6
		c-1.7,1.7-3.5,3.5-5.5,4.8c-1.2,0.8-3.1,1.3-4.2,2.2c-0.4,0.3-0.9,0.7-1.3,0.9c0.6,3.4,2.1,12.5,1.9,16c0,0,1.9-0.1,4.4-0.6
		C697.1,260.1,696.8,258.2,697.3,256.3z"/>
	<path class="st4" d="M697.1,433.9c0,0-0.3,10.9-2,12.4c-1.7,1.5-23.5,2.2-25.4,0.2c-1.9-2-0.8-5.4,3.9-6.7c5-1.4,7.5,0,10.6-1.3
		c3.1-1.3,2.3-6.3,2.3-6.3L697.1,433.9z"/>
	<path class="st4" d="M751.1,433.5c0,0,1.7,10.7,0,12.2c-1.7,1.6-23.8,3.3-25.8,1.4c-2-1.9-1-5.3,3.6-6.8c5-1.6,7.4-0.6,10.6-1.7
		c2.5-0.9,0.8-6,0.8-6L751.1,433.5z"/>
	<g>
		<path class="st6" d="M735,372.1c0.5-30.3-3-51.1-4.5-60.9c-3.6,0.1-7.3,0.5-10.9,2.1c-6.6,3-13.3,5.9-20,8.8
			c5.4,11.2,17.3,47.9,18.7,55.5c1.8,9.5,21.7,58.2,21.7,58.2l12.1-1.5C751.9,426.5,734.9,374.8,735,372.1z"/>
		<path class="st7" d="M710.2,317.7c-3.5,1.7-7.1,3.1-10.8,4.4c5.3,11,15,41.5,17.2,49.6c1.7-5.1,9.9-17.5,13-31
			c2.1-9,2.5-18.4,1-27.6c0,0,0-0.1,0-0.1C724,313.5,717.4,314.2,710.2,317.7z"/>
		<path class="st6" d="M719.3,316c-4.7,1.6-13.3,3.9-19.7,6.2c-4.5,11.4-17.8,38.2-18.5,50.3c-0.8,13.4,3.9,64.1,3.9,64.1h13.8
			c0,0,1.3-57.1,3.2-60.8c6.4-12.1,13.4-21.7,17.4-29.2c6.7-12.6,9-20.8,10.2-26.7c0.5-2.6,2.8-11.4-1.6-14.1
			C724.3,306.8,723.2,314.7,719.3,316z"/>
	</g>
	<g>
		<path class="st3" d="M694.5,324.9c0,0,11.6,4.7,23,3.6c8.5-0.8,12.8-0.9,17.8-3.6c0,0-5.3-41.2-11.4-54.2
			c-6.1-13-16.1-15.5-16.1-15.5s-7.9,4.6-14.3,4.5c0,0,0.2,25.3,0.6,35.4C694.6,305.3,694.5,324.9,694.5,324.9z"/>
		<path class="st8" d="M694,291.5c0-1.1-0.1-2.3-0.1-3.5c0-0.1,0-0.3,0-0.5c0-1.2-0.1-2.4-0.1-3.7c0-0.2,0-0.4,0-0.6
			c0-1.4-0.1-2.8-0.1-4.3c0,0,0,0,0-0.1c0.5,0,1,0,1.6-0.1c4-0.8,7.5-3,11-5.1c0.6-0.3,1.2-0.6,1.8-0.9c0.7,5.4-1.7,12-2.8,16.3
			c-2.9,11.9-4.5,27-2,38.5c-5.2-1.1-8.8-2.5-8.8-2.5s0.1-19.7-0.4-29.8c0-0.9-0.1-1.9-0.1-3C694,291.9,694,291.7,694,291.5z"/>
	</g>
	<path class="st2" d="M708.8,227.7c0,0-4.7-9.8-10.9-9.4c-6.2,0.4-10.2,1.4-11.1,3.8c-0.8,2.4-2.2,9-3.8,11.5c-1.6,2.5-5,5.7-5,6.8
		c0.1,1.1,3.6,1.5,3.8,2c0.2,0.5,2.1,8.5,3.4,9.4c1.3,0.8,13.3-3.8,15.1-7.4C702.3,240.7,709.4,234,708.8,227.7z"/>
	<path class="st4" d="M696.1,228.6c-0.6,0-1.4,0.4-1.9,0.5c-0.9,0.2-1.9,0.2-2.8,0.4c-1.9,0.3-3.7,0.6-5.6,0
		c-2.7-0.9-1.8-3.6-3.1-5.4c-0.6-0.9-1.9-0.9-2.5-1.9c-0.6-1-0.8-2.4-0.8-3.5c0-2.9,2.8-3.1,5-3.7c2.6-0.6,2.7-2.1,3.9-4
		c3-4.8,7.3,1.9,10.7,1.4c1.7-0.2,3.5-1.3,5.2-0.4c1.4,0.8,2.3,2.3,3.3,3.5c1,1.3,2,0.8,3.5,1.3c1.1,0.4,2.3,1.4,3,2.3
		c1.7,2,2.8,4.9,2.3,7.5c-0.4,2.2-2.2,3.4-2.3,5.7c-0.1,1.8,0,4.1-0.9,5.8c-1.3,2.4-4.2,2.8-6.1,4.4c-1.8,1.6-4.5,2.7-7,2.2
		c-0.3-1.7-0.1-4.6,1.4-5.5c0.6-0.3,1.3-0.4,2.3-1.2c1.7-1.4,0.7-5-2.6-4.5c-2,0.3-2.9,5.7-5,4.8c-1.6-0.7,0.3-3.4,0.8-4.3
		c0.6-1.2,0.9-4.3-0.3-5.3C696.6,228.6,696.4,228.6,696.1,228.6z"/>
	<path class="st2" d="M643.8,325.2c-0.6-0.1-1.4-0.2-1.6-0.1c-1.1,0.3-2.8-0.2-3.5-0.4c-1.7-0.6-4.2-1.7-6-1.4c-1,0.2-7,1.6-5.5,4
		c0.2,0.3,0.9,0.8,1.1,0.8c0.6-0.2,2.3-0.9,2.3-0.9s-1.3,0.5-1.6,0.7c-0.2,0.2-0.7,0.4-0.8,0.6c-0.3,0.5,0.2,1.6,0.7,1.8
		c0.5,0.2,0.9-0.3,1.3-0.6c0,0,0,0,0,0c-0.4,0.3-1.3,0.6-0.8,1.8c0.6,1.4,1.1,0.5,1.7,0.4c0.2-0.1,0.4-0.2,0.6-0.3
		c-0.2,0.1-1.1,0.5-1.2,0.7c-0.6,0.5,0.7,2.2,1.8,2c0.7-0.1,2.3-1.1,2.7-1c0.4,0.1,0.9,0.1,1.4,0.2c1.4,0.1,2.8-0.2,4.1-0.8
		c0.6-0.3,1.7-0.7,2.2-1c1.4-0.7,2.9-1.9,3.3-2.3C645.1,327.6,643.6,327.2,643.8,325.2z"/>
	<path class="st3" d="M645.9,332.7l-4.8-9.6c0,0,24-15.4,32.8-24.3c8.8-8.9,18.3-26.9,25-28c6.7-1.1,13.4,2.6,9.6,11.9
		c-3.9,9.3-23.5,21.7-27.5,25.8C676.9,312.6,649.8,330.5,645.9,332.7z"/>
</g>
<g>
	<path class="st0" d="M712.6,105.5c-4.3-1.8-18-9-29,17c-10.5,24.7-21.6,58.3-21.6,58.3s27.3-22.5,46.5-41.2
		C728.9,120,716.6,108.1,712.6,105.5z"/>
	<path class="st4" d="M689.2,125.3l-26.2,27c-7.9,8.1-15,17-21.4,26.4l-107,159.4l121.2-131.3c13.7-14.8,24.9-31.7,33.2-50.1
		l10.2-22.5C695.4,132.1,692,129,689.2,125.3z"/>
	<path class="st0" d="M657.7,182.8c0,0-17.6-49.2-1.1-81c16.5-31.8,38,28.8,38,28.8L657.7,182.8z"/>
	<path class="st0" d="M657.5,182.5c0,0,52.2-0.1,76.6-26.4c24.4-26.3-40-26-40-26L657.5,182.5z"/>
</g>
<path class="st2" d="M618.6,247.8c-0.4-0.2-0.8,0.9-1.2,0.8c0,0,0.1-1.2,0.1-1.2c-0.2-1.1-4.2-1.3-5.1-1.8c-2.7-1.4-1.6-3.1-0.4-2.7
	c0.8,0.3,2.7,0.8,3.5,1.1c0.8,0.3,2,0.2,2.8,0.3c0.7,0.1,2.8,2,3.5,2.4C623,247.7,620,248.4,618.6,247.8z"/>
</svg>
