<?xml version="1.0" encoding="utf-8"?>
<!-- Generator: Adobe Illustrator 25.0.0, SVG Export Plug-In . SVG Version: 6.00 Build 0)  -->
<svg version="1.1"
	 id="Capa_1" xmlns:cc="http://creativecommons.org/ns#" xmlns:dc="http://purl.org/dc/elements/1.1/" xmlns:inkscape="http://www.inkscape.org/namespaces/inkscape" xmlns:rdf="http://www.w3.org/1999/02/22-rdf-syntax-ns#" xmlns:sodipodi="http://sodipodi.sourceforge.net/DTD/sodipodi-0.dtd" xmlns:svg="http://www.w3.org/2000/svg"
	 xmlns="http://www.w3.org/2000/svg" xmlns:xlink="http://www.w3.org/1999/xlink" x="0px" y="0px" viewBox="0 0 347 347"
	 style="enable-background:new 0 0 347 347;" xml:space="preserve">
<style type="text/css">
	.st0{opacity:0.8;fill:#FFF9E1;enable-background:new    ;}
	.st1{fill:#243647;}
</style>
<circle class="st0" cx="174.3" cy="173.1" r="168.1"/>
<path class="st1" d="M257.9,90.2h-51.2c-10.4,0-19.3,8.9-19.3,19.3v51.2c0,10.4,8.9,19.3,19.3,19.3h31.9v25.2
	c0,14.1-11.1,25.2-25.2,25.2h-3c-5.2,0-9.6,4.5-9.6,9.6v19.3c0,5.2,4.5,9.6,9.6,9.6h3c35.6,0,63.8-28.9,63.8-63.8v-95.7
	C277.2,99.1,268.3,90.2,257.9,90.2z M142.9,90.2H91.7c-10.4,0-19.3,8.9-19.3,19.3v51.2c0,10.4,8.9,19.3,19.3,19.3h31.9v25.2
	c0,14.1-11.1,25.2-25.2,25.2h-3.7c-5.2,0.7-9.6,5.2-9.6,10.4v19.3c0,5.2,4.5,9.6,9.6,9.6h3c35.6,0,63.8-28.9,63.8-63.8v-96.4
	C162.2,99.1,153.3,90.2,142.9,90.2z"/>
</svg>
