<?xml version="1.0" encoding="utf-8"?>
<!-- Generator: Adobe Illustrator 25.0.0, SVG Export Plug-In . SVG Version: 6.00 Build 0)  -->
<svg version="1.1"
	 id="Capa_1" xmlns:cc="http://creativecommons.org/ns#" xmlns:dc="http://purl.org/dc/elements/1.1/" xmlns:inkscape="http://www.inkscape.org/namespaces/inkscape" xmlns:rdf="http://www.w3.org/1999/02/22-rdf-syntax-ns#" xmlns:sodipodi="http://sodipodi.sourceforge.net/DTD/sodipodi-0.dtd" xmlns:svg="http://www.w3.org/2000/svg"
	 xmlns="http://www.w3.org/2000/svg" xmlns:xlink="http://www.w3.org/1999/xlink" x="0px" y="0px" viewBox="0 0 416.4 416.4"
	 style="enable-background:new 0 0 416.4 416.4;" xml:space="preserve">
<style type="text/css">
	.st0{opacity:0.8;fill:#FFF9E1;enable-background:new    ;}
	.st1{fill:#243647;}
</style>
<circle class="st0" cx="209" cy="207.8" r="201.7"/>
<path class="st1" d="M309.3,108.3h-61.4c-12.5,0-23.2,10.7-23.2,23.2v61.4c0,12.5,10.7,23.2,23.2,23.2h38.3v30.2
	c0,16.9-13.3,30.2-30.2,30.2h-3.6c-6.2,0-11.5,5.4-11.5,11.5v23.2c0,6.2,5.4,11.5,11.5,11.5h3.6c42.7,0,76.6-34.7,76.6-76.6V131.4
	C332.5,119,321.8,108.3,309.3,108.3z M171.3,108.3h-61.4c-12.5,0-23.2,10.7-23.2,23.2v61.4c0,12.5,10.7,23.2,23.2,23.2h38.3v30.2
	c0,16.9-13.3,30.2-30.2,30.2h-4.4c-6.2,0.8-11.5,6.2-11.5,12.5v23.2c0,6.2,5.4,11.5,11.5,11.5h3.6c42.7,0,76.6-34.7,76.6-76.6V131.5
	C194.5,119,183.8,108.3,171.3,108.3z"/>
</svg>
