<?xml version="1.0" encoding="utf-8"?>
<!-- Generator: Adobe Illustrator 25.0.0, SVG Export Plug-In . SVG Version: 6.00 Build 0)  -->
<svg version="1.1"
	 id="Capa_1" xmlns:cc="http://creativecommons.org/ns#" xmlns:dc="http://purl.org/dc/elements/1.1/" xmlns:inkscape="http://www.inkscape.org/namespaces/inkscape" xmlns:rdf="http://www.w3.org/1999/02/22-rdf-syntax-ns#" xmlns:sodipodi="http://sodipodi.sourceforge.net/DTD/sodipodi-0.dtd" xmlns:svg="http://www.w3.org/2000/svg"
	 xmlns="http://www.w3.org/2000/svg" xmlns:xlink="http://www.w3.org/1999/xlink" x="0px" y="0px" viewBox="0 0 34 34.9"
	 style="enable-background:new 0 0 34 34.9;" xml:space="preserve">
<style type="text/css">
	.st0{opacity:0.8;fill:#FF7A36;enable-background:new    ;}
	.st1{fill:#FFE07D;}
	.st2{fill:#FFD064;}
	.st3{fill:#E27D47;}
	.st4{fill:#DD544F;}
	.st5{fill:#365E7D;}
	.st6{fill:#2B4D66;}
	.st7{fill:#F6F1F1;}
	.st8{fill:#DAE4EA;}
	.st9{fill:#95D6A4;}
	.st10{fill:#78C2A4;}
	.st11{fill:#31383F;}
</style>
<circle class="st0" cx="17" cy="17.9" r="16.7"/>
<g>
	<g>
		<path class="st1" d="M24.8,12.6H9v10.8c0,0.4,0.3,0.7,0.7,0.7h14.5c0.4,0,0.7-0.3,0.7-0.7L24.8,12.6L24.8,12.6z"/>
		<path class="st2" d="M9,12.6V14h14.4c0.4,0,0.7,0.3,0.7,0.7v9.4h0.1c0.4,0,0.7-0.3,0.7-0.7V12.6H9z"/>
	</g>
	<path class="st3" d="M25.2,13.3H8.6c-0.3,0-0.5-0.2-0.5-0.5V12c0-0.3,0.2-0.5,0.5-0.5h16.6c0.3,0,0.5,0.2,0.5,0.5v0.8
		C25.7,13.1,25.5,13.3,25.2,13.3z"/>
	<path class="st4" d="M25.2,11.5h-0.8c0.3,0,0.5,0.2,0.5,0.5v0.8c0,0.3-0.2,0.5-0.5,0.5h0.8c0.3,0,0.5-0.2,0.5-0.5V12
		C25.7,11.7,25.5,11.5,25.2,11.5z"/>
	<g>
		<path class="st5" d="M11.9,23l-0.4,0.4L10.9,24l1,1l1,1c0.2,0.2,0.4,0.2,0.5,0l0.1-0.1c0.2-0.2,0.2-0.4,0-0.5l-0.7-0.7
			c-0.1-0.1-0.1-0.2-0.1-0.3l0.1-0.3c0-0.1,0-0.2-0.1-0.3L11.9,23z"/>
		<path class="st6" d="M10.8,24.1l0.6,0.6l1.1-1.1L11.9,23l-0.4,0.4L10.8,24.1z"/>
		<path class="st3" d="M12.7,22.7l2.9-1.2l-3.9-3.9l-1.2,2.9l-0.1,0.6l1.6,1.6H12.7z"/>
		<path class="st7" d="M12.7,22.7l-1.8,1.8c-0.2,0.2-0.4,0.2-0.6,0l-1.6-1.6c-0.2-0.2-0.2-0.4,0-0.6l1.8-1.8L12.7,22.7z"/>
		<path class="st8" d="M10.1,20.9l0.4-0.4l2.2,2.2l-0.4,0.4L10.1,20.9z"/>
		<path class="st4" d="M11.4,18.2l3.6,3.6l0.5-0.2l-3.9-3.9L11.4,18.2z"/>
		<path class="st3" d="M9.6,24.8l0.5-0.5l-1.2-1.2l-0.5,0.5c-0.3,0.3-0.3,0.9,0,1.2C8.7,25.1,9.2,25.1,9.6,24.8L9.6,24.8z"/>
		<path class="st4" d="M8.5,23.4l0.4-0.3l1.2,1.2l-0.4,0.4L8.5,23.4z"/>
		<path class="st3" d="M10.2,22l-0.4,0.4c-0.1,0.1-0.4,0.1-0.5,0L8.9,22l0.9-0.9l0.4,0.4C10.4,21.6,10.4,21.8,10.2,22L10.2,22z"/>
		<path class="st4" d="M9.5,21.4l0.4,0.4c0.1,0.1,0.1,0.4,0,0.5l0.3-0.3c0.1-0.1,0.1-0.4,0-0.5l-0.3-0.4L9.5,21.4z"/>
	</g>
	<path class="st9" d="M18.9,19.1h-4c-0.5,0-1-0.4-1-1v-0.2c0-0.5,0.4-1,1-1h4c0.5,0,1,0.4,1,1v0.2C19.9,18.7,19.5,19.1,18.9,19.1z"
		/>
	<path class="st10" d="M18.9,16.9h-0.8c0.5,0,1,0.4,1,1v0.2c0,0.5-0.4,1-1,1h0.8c0.5,0,1-0.4,1-1v-0.2
		C19.9,17.4,19.5,16.9,18.9,16.9z"/>
	<g>
		<path class="st11" d="M14.9,19.4h4c0.7,0,1.2-0.6,1.2-1.2V18c0-0.7-0.6-1.2-1.2-1.2h-4c-0.7,0-1.2,0.6-1.2,1.2v0.2
			C13.6,18.8,14.2,19.4,14.9,19.4L14.9,19.4z M14.1,17.9c0-0.4,0.3-0.7,0.7-0.7h4.1c0.4,0,0.7,0.3,0.7,0.7v0.2
			c0,0.4-0.3,0.7-0.7,0.7h-4c-0.4,0-0.7-0.3-0.7-0.7L14.1,17.9z"/>
		<path class="st11" d="M16,18.3h1.8c0.1,0,0.3-0.1,0.3-0.3s-0.1-0.2-0.3-0.2H16c-0.1,0-0.3,0.1-0.3,0.3S15.8,18.3,16,18.3L16,18.3z
			"/>
		<path class="st11" d="M15.1,16.2c0,0.1,0.1,0.3,0.3,0.3c0.1,0,0.3-0.1,0.3-0.3V15c0-0.1-0.1-0.3-0.3-0.3h-2.9l0.1-0.1
			c0.1-0.1,0.1-0.3,0-0.4c-0.1-0.1-0.3-0.1-0.4,0l-0.7,0.6c-0.1,0.1-0.1,0.1-0.1,0.2s0,0.1,0.1,0.2l0.7,0.6c0.1,0.1,0.3,0.1,0.4,0
			c0.1-0.1,0.1-0.3,0-0.4l-0.1-0.1h2.6L15.1,16.2L15.1,16.2z"/>
		<path class="st11" d="M22.3,14.8l-0.7-0.6c-0.1-0.1-0.3-0.1-0.4,0s-0.1,0.3,0,0.4l0.1,0.1h-2.9c-0.1,0-0.3,0.1-0.3,0.3v1.2
			c0,0.1,0.1,0.3,0.3,0.3s0.3-0.1,0.3-0.3v-0.9h2.6l-0.1,0.1c-0.1,0.1-0.1,0.3,0,0.4c0.1,0.1,0.3,0.1,0.4,0l0.7-0.6
			c0.1-0.1,0.1-0.1,0.1-0.2S22.3,14.8,22.3,14.8L22.3,14.8z"/>
		<path class="st11" d="M21.2,21.8c0.1,0.1,0.3,0.1,0.4,0l0.7-0.6c0.1-0.1,0.1-0.1,0.1-0.2s0-0.1-0.1-0.2l-0.7-0.6
			c-0.1-0.1-0.3-0.1-0.4,0s-0.1,0.3,0,0.4l0.1,0.1h-2.6v-0.9c0-0.1-0.1-0.3-0.3-0.3s-0.3,0.1-0.3,0.3V21c0,0.1,0.1,0.3,0.3,0.3h2.9
			l-0.1,0.1C21.1,21.5,21.1,21.7,21.2,21.8L21.2,21.8z"/>
		<path class="st11" d="M25.2,11.2H10.9c-0.1,0-0.3,0.1-0.3,0.3s0.1,0.3,0.3,0.3h14.3c0.1,0,0.2,0.1,0.2,0.2v0.8
			c0,0.1-0.1,0.2-0.2,0.2H8.6c-0.1,0-0.2-0.1-0.2-0.2V12c0-0.1,0.1-0.2,0.2-0.2h1.2c0.1,0,0.3-0.1,0.3-0.3s-0.1-0.3-0.3-0.3H8.6
			c-0.4,0-0.7,0.3-0.7,0.7v0.9c0,0.4,0.3,0.7,0.7,0.7h0.2v8.3l-0.3,0.3c-0.3,0.3-0.3,0.7,0,1l0,0l-0.3,0.3c-0.4,0.4-0.4,1.2,0,1.6
			c0.2,0.2,0.5,0.3,0.8,0.3s0.6-0.1,0.8-0.3l0.3-0.3l0,0c0.3,0.3,0.7,0.3,1,0l0,0l0.5,0.5c0.1,0.1,0.3,0.1,0.4,0
			c0.1-0.1,0.1-0.3,0-0.4l-0.5-0.5l0.7-0.7l0.4,0.4l-0.1,0.3c-0.1,0.2,0,0.4,0.1,0.5l0.7,0.7c0,0,0,0.1,0,0.2l-0.1,0.1
			c0,0-0.1,0-0.2,0l-0.3-0.3c-0.1-0.1-0.3-0.1-0.4,0c-0.1,0.1-0.1,0.3,0,0.4l0.3,0.3c0.3,0.3,0.7,0.3,0.9,0l0.1-0.1
			c0.3-0.3,0.3-0.7,0-0.9l-0.7-0.7l0.1-0.3h11.1c0.5,0,0.9-0.4,0.9-0.9V19c0-0.1-0.1-0.3-0.3-0.3c-0.1,0-0.3,0.1-0.3,0.3v4.3
			c0,0.2-0.2,0.4-0.4,0.4H13c0-0.1,0,0-0.5-0.5l0.3-0.3l0.9-0.4l0.1,0.1c0.1,0.1,0.3,0.1,0.4,0c0.1-0.1,0.1-0.2,0-0.3l1.2-0.5
			l0.1,0.1c0.1,0.1,0.3,0.1,0.4,0c0.1-0.1,0.1-0.3,0-0.4l-0.2-0.2c-0.4-0.4-3.7-3.7-4.1-4.1c-0.1-0.1-0.3-0.1-0.4,0
			c-0.1,0.1-0.1,0.3,0,0.4l0.1,0.1l-0.5,1.2c-0.1-0.1-0.2,0-0.3,0c-0.1,0.1-0.1,0.3,0,0.4l0.1,0.1l-0.4,0.9l-0.9,0.9v-7.8h15.3v4.5
			c0,0.1,0.1,0.3,0.3,0.3c0.1,0,0.3-0.1,0.3-0.3v-4.5h0.2c0.4,0,0.7-0.3,0.7-0.7v-0.8C26,11.6,25.6,11.2,25.2,11.2z M10,21.8
			L10,21.8l-0.4,0.4c0,0-0.1,0-0.2,0L9.2,22l0.6-0.6l0.2,0.2C10.1,21.7,10.1,21.8,10,21.8L10,21.8z M9.4,24.6
			c-0.2,0.2-0.6,0.2-0.8,0s-0.2-0.6,0-0.8l0.3-0.3l0.4,0.4l0.4,0.4L9.4,24.6z M10.5,24.3c-0.4-0.4-1.2-1.2-1.6-1.6
			c-0.1-0.1-0.1-0.2,0-0.2v-0.1l0.2,0.2c0.3,0.3,0.7,0.3,0.9,0l0.4-0.4l0,0l0,0c0.3-0.3,0.3-0.7,0-0.9l-0.2-0.2l0.2-0.2
			c0.2,0.2,1.6,1.6,1.8,1.8C11.6,23.3,10.9,24,10.5,24.3C10.6,24.4,10.5,24.4,10.5,24.3L10.5,24.3z M15.1,21.4l-1.2,0.5l-2.6-2.6
			l0.5-1.2C12.1,18.5,14.7,21,15.1,21.4z M13.3,22.1l-0.6,0.3c-0.2-0.2-1.7-1.7-2-2l0.3-0.6L13.3,22.1z"/>
	</g>
</g>
</svg>
