<?xml version="1.0" encoding="utf-8"?>
<!-- Generator: Adobe Illustrator 24.3.0, SVG Export Plug-In . SVG Version: 6.00 Build 0)  -->
<svg version="1.1" id="Capa_1" xmlns="http://www.w3.org/2000/svg" xmlns:xlink="http://www.w3.org/1999/xlink" x="0px" y="0px"
	 viewBox="0 0 52.7 52.7" style="enable-background:new 0 0 52.7 52.7;" xml:space="preserve">
<style type="text/css">
	.st0{fill:#747172;}
</style>
<g>
	<path class="st0" d="M8.1,47.1h37.7c2.3,0,4.1-1.8,4.1-4.1V10c0-2.3-1.8-4.1-4.1-4.1H8.1C5.8,5.9,4,7.7,4,10v33
		C4,45.2,5.8,47.1,8.1,47.1z M8.1,7h37.7c1.6,0,2.9,1.3,2.9,2.9v2.9H5.2V10C5.2,8.4,6.5,7,8.1,7z M5.2,14.1h43.6V43
		c0,1.6-1.3,2.9-2.9,2.9H8.1c-1.6,0-2.9-1.3-2.9-2.9V14.1z"/>
	<circle class="st0" cx="9.3" cy="10" r="1.2"/>
	<circle class="st0" cx="14" cy="10" r="1.2"/>
	<circle class="st0" cx="18.7" cy="10" r="1.2"/>
	<ellipse class="st0" cx="21.1" cy="31.8" rx="1.2" ry="1.8"/>
	<ellipse class="st0" cx="32.9" cy="31.8" rx="1.2" ry="1.8"/>
	<path class="st0" d="M23,40.6h7.9c0.2,0,0.5-0.2,0.6-0.5c0.1-0.3,0.2-0.7,0.1-1c0-0.2-0.9-4.4-4.7-4.4c-3.8,0-4.6,4.2-4.7,4.4
		c-0.1,0.4,0,0.7,0.1,1C22.6,40.4,22.8,40.6,23,40.6z"/>
</g>
</svg>
