<?xml version="1.0" encoding="utf-8"?>
<!-- Generator: Adobe Illustrator 24.3.0, SVG Export Plug-In . SVG Version: 6.00 Build 0)  -->
<svg version="1.1" id="Capa_1" xmlns="http://www.w3.org/2000/svg" xmlns:xlink="http://www.w3.org/1999/xlink" x="0px" y="0px"
	 viewBox="0 0 54 54" style="enable-background:new 0 0 54 54;" xml:space="preserve">
<style type="text/css">
	.st0{fill:#FF7A36;}
	.st1{fill:#FFFFFF;stroke:#FFFFFF;stroke-width:1.5;stroke-miterlimit:10;}
</style>
<g>
	<path class="st0" d="M8.6,8.6L8.6,8.6c10.2-10.2,26.6-10.2,36.8,0l0,0c10.2,10.2,10.2,26.6,0,36.8l0,0c-10.2,10.2-26.6,10.2-36.8,0
		l0,0C-1.5,35.2-1.5,18.8,8.6,8.6z"/>
	<path class="st0" d="M46.1,46.1c-10.5,10.5-27.7,10.5-38.2,0s-10.5-27.7,0-38.2s27.7-10.5,38.2,0S56.6,35.6,46.1,46.1z M44.7,44.7
		c9.7-9.7,9.7-25.6,0-35.4s-25.6-9.7-35.4,0s-9.7,25.6,0,35.4S34.9,54.4,44.7,44.7z"/>
</g>
<path class="st1" d="M41.3,27c0,0.6-0.4,1-1,1h-26c-0.6,0-1-0.4-1-1s0.4-1,1-1h26c0.3,0,0.5,0.1,0.7,0.3
	C41.2,26.5,41.3,26.7,41.3,27z"/>
<polygon class="st1" points="15.7,27 25,36.3 23.6,37.7 12.9,27 23.6,16.3 25,17.7 "/>
</svg>
