<?xml version="1.0" encoding="utf-8"?>
<!-- Generator: Adobe Illustrator 24.3.0, SVG Export Plug-In . SVG Version: 6.00 Build 0)  -->
<svg version="1.1" id="Capa_1" xmlns="http://www.w3.org/2000/svg" xmlns:xlink="http://www.w3.org/1999/xlink" x="0px" y="0px"
	 viewBox="0 0 32 12.8" style="enable-background:new 0 0 32 12.8;" xml:space="preserve">
<style type="text/css">
	.st0{fill:#747172;stroke:#747172;stroke-width:0.75;stroke-miterlimit:10;}
</style>
<path class="st0" d="M21,5.1c-1,0-1.6-1-2.2-2.1c-0.6-1.2-1.4-2.5-2.9-2.5c-1.5,0-2.2,1.3-2.9,2.5c-0.6,1.1-1.2,2.1-2.2,2.1
	S9.4,4.1,8.8,3C8.1,1.8,7.4,0.5,5.9,0.5C4.4,0.5,3.7,1.8,3,3C2.4,4.1,1.9,5.1,0.9,5.1c-0.2,0-0.4,0.2-0.4,0.4c0,0.2,0.2,0.4,0.4,0.4
	c1.5,0,2.2-1.3,2.9-2.5c0.6-1.1,1.2-2.1,2.2-2.1c1,0,1.6,1,2.2,2.1c0.6,1.2,1.4,2.5,2.9,2.5c1.5,0,2.2-1.3,2.9-2.5
	C14.4,2.3,15,1.3,16,1.3c1,0,1.6,1,2.2,2.1c0.6,1.2,1.4,2.5,2.9,2.5c1.5,0,2.2-1.3,2.9-2.5c0.6-1.1,1.2-2.1,2.2-2.1s1.6,1,2.2,2.1
	c0.6,1.2,1.4,2.5,2.9,2.5c0.2,0,0.4-0.2,0.4-0.4c0-0.2-0.2-0.4-0.4-0.4c-1,0-1.6-1-2.2-2.1c-0.6-1.2-1.4-2.5-2.9-2.5
	S23.9,1.8,23.2,3C22.6,4.1,22.1,5.2,21,5.1z"/>
</svg>
